<svg width="17" height="17" viewBox="0 0 17 17" fill="none" xmlns="http://www.w3.org/2000/svg">
<mask id="mask0_1823_7692" style="mask-type:alpha" maskUnits="userSpaceOnUse" x="0" y="0" width="17" height="17">
<rect width="17" height="17" fill="#D9D9D9"/>
</mask>
<g mask="url(#mask0_1823_7692)">
<path d="M11.7774 9.03139H3.71875C3.568 9.03139 3.44178 8.98054 3.34007 8.87883C3.23836 8.77713 3.1875 8.65091 3.1875 8.50016C3.1875 8.34941 3.23836 8.22319 3.34007 8.12148C3.44178 8.01978 3.568 7.96893 3.71875 7.96893H11.7774L8.11585 4.30738C8.01051 4.20204 7.95853 4.07876 7.9599 3.93756C7.96125 3.79634 8.01688 3.67079 8.12676 3.56092C8.23664 3.4583 8.36104 3.40518 8.49998 3.40154C8.63892 3.39791 8.76333 3.45103 8.8732 3.56092L13.3643 8.05202C13.4306 8.1183 13.4774 8.18823 13.5046 8.26179C13.5319 8.33534 13.5455 8.41479 13.5455 8.50016C13.5455 8.58553 13.5319 8.66498 13.5046 8.73853C13.4774 8.81209 13.4306 8.88202 13.3643 8.9483L8.8732 13.4394C8.77513 13.5375 8.65368 13.5877 8.50884 13.5899C8.36399 13.5922 8.23664 13.542 8.12676 13.4394C8.01688 13.3295 7.96193 13.2033 7.96193 13.0607C7.96193 12.9182 8.01688 12.7919 8.12676 12.6821L11.7774 9.03139Z" fill="#3F76FF"/>
</g>
</svg>
