<svg width="18" height="20" viewBox="0 0 18 20" fill="none" xmlns="http://www.w3.org/2000/svg">
<path d="M9 12C8.71667 12 8.47917 11.9042 8.2875 11.7125C8.09583 11.5208 8 11.2833 8 11C8 10.7167 8.09583 10.4792 8.2875 10.2875C8.47917 10.0958 8.71667 10 9 10C9.28333 10 9.52083 10.0958 9.7125 10.2875C9.90417 10.4792 10 10.7167 10 11C10 11.2833 9.90417 11.5208 9.7125 11.7125C9.52083 11.9042 9.28333 12 9 12ZM5 12C4.71667 12 4.47917 11.9042 4.2875 11.7125C4.09583 11.5208 4 11.2833 4 11C4 10.7167 4.09583 10.4792 4.2875 10.2875C4.47917 10.0958 4.71667 10 5 10C5.28333 10 5.52083 10.0958 5.7125 10.2875C5.90417 10.4792 6 10.7167 6 11C6 11.2833 5.90417 11.5208 5.7125 11.7125C5.52083 11.9042 5.28333 12 5 12ZM13 12C12.7167 12 12.4792 11.9042 12.2875 11.7125C12.0958 11.5208 12 11.2833 12 11C12 10.7167 12.0958 10.4792 12.2875 10.2875C12.4792 10.0958 12.7167 10 13 10C13.2833 10 13.5208 10.0958 13.7125 10.2875C13.9042 10.4792 14 10.7167 14 11C14 11.2833 13.9042 11.5208 13.7125 11.7125C13.5208 11.9042 13.2833 12 13 12ZM9 16C8.71667 16 8.47917 15.9042 8.2875 15.7125C8.09583 15.5208 8 15.2833 8 15C8 14.7167 8.09583 14.4792 8.2875 14.2875C8.47917 14.0958 8.71667 14 9 14C9.28333 14 9.52083 14.0958 9.7125 14.2875C9.90417 14.4792 10 14.7167 10 15C10 15.2833 9.90417 15.5208 9.7125 15.7125C9.52083 15.9042 9.28333 16 9 16ZM5 16C4.71667 16 4.47917 15.9042 4.2875 15.7125C4.09583 15.5208 4 15.2833 4 15C4 14.7167 4.09583 14.4792 4.2875 14.2875C4.47917 14.0958 4.71667 14 5 14C5.28333 14 5.52083 14.0958 5.7125 14.2875C5.90417 14.4792 6 14.7167 6 15C6 15.2833 5.90417 15.5208 5.7125 15.7125C5.52083 15.9042 5.28333 16 5 16ZM13 16C12.7167 16 12.4792 15.9042 12.2875 15.7125C12.0958 15.5208 12 15.2833 12 15C12 14.7167 12.0958 14.4792 12.2875 14.2875C12.4792 14.0958 12.7167 14 13 14C13.2833 14 13.5208 14.0958 13.7125 14.2875C13.9042 14.4792 14 14.7167 14 15C14 15.2833 13.9042 15.5208 13.7125 15.7125C13.5208 15.9042 13.2833 16 13 16ZM1.5 20C1.1 20 0.75 19.85 0.45 19.55C0.15 19.25 0 18.9 0 18.5V3C0 2.6 0.15 2.25 0.45 1.95C0.75 1.65 1.1 1.5 1.5 1.5H3.125V0.8C3.125 0.566667 3.2 0.375 3.35 0.225C3.5 0.0749999 3.69167 0 3.925 0C4.15833 0 4.35417 0.0749999 4.5125 0.225C4.67083 0.375 4.75 0.566667 4.75 0.8V1.5H13.25V0.8C13.25 0.566667 13.325 0.375 13.475 0.225C13.625 0.0749999 13.8167 0 14.05 0C14.2833 0 14.4792 0.0749999 14.6375 0.225C14.7958 0.375 14.875 0.566667 14.875 0.8V1.5H16.5C16.9 1.5 17.25 1.65 17.55 1.95C17.85 2.25 18 2.6 18 3V18.5C18 18.9 17.85 19.25 17.55 19.55C17.25 19.85 16.9 20 16.5 20H1.5ZM1.5 18.5H16.5V7.75H1.5V18.5ZM1.5 6.25H16.5V3H1.5V6.25ZM1.5 6.25V3V6.25Z" fill="#212529"/>
</svg>
