<svg xmlns="http://www.w3.org/2000/svg" viewBox="0 0 238.84 238.84"><defs><style>.cls-1{fill:#f2655a;}</style></defs><g id="Layer_2" data-name="Layer 2"><g id="Layer_1-2" data-name="Layer 1"><path class="cls-1" d="M75,17.52a113.67,113.67,0,0,1,87.23-2,3.47,3.47,0,0,0,2.62-6.38,113.38,113.38,0,0,0-92.28,1.48,4,4,0,0,0-1.45,5.24A3.88,3.88,0,0,0,75,17.52Z"/><path class="cls-1" d="M17.52,166.91a113.67,113.67,0,0,1-2-87.23,3.46,3.46,0,0,0-6.38-2.61,113.36,113.36,0,0,0,1.48,92.27,4,4,0,0,0,5.24,1.45A3.88,3.88,0,0,0,17.52,166.91Z"/><path class="cls-1" d="M221.32,163.88a113.67,113.67,0,0,0,2.05-87.23A3.47,3.47,0,0,1,229.76,74a113.33,113.33,0,0,1-1.49,92.28,4,4,0,0,1-5.23,1.44A3.9,3.9,0,0,1,221.32,163.88Z"/><path class="cls-1" d="M71.94,221.32a113.67,113.67,0,0,0,87.23,2.05,3.47,3.47,0,0,1,2.61,6.39,113.33,113.33,0,0,1-92.28-1.49A4,4,0,0,1,68.06,223,3.89,3.89,0,0,1,71.94,221.32Z"/><path class="cls-1" d="M119.42,32.55a86.87,86.87,0,1,0,86.87,86.87A86.88,86.88,0,0,0,119.42,32.55Zm26.79,113.87a2.84,2.84,0,0,1-3.79,0l-23-23L96.3,146.5a2.91,2.91,0,0,1-3.58,0,3,3,0,0,1,0-4.26l23.06-23.05L92.46,95.87a2.48,2.48,0,1,1,3.75-3.24l23.28,23.27L143,92.42a2.5,2.5,0,0,1,3.1,0,2.56,2.56,0,0,1,0,3.7L123,119.18l23.19,23.19A2.84,2.84,0,0,1,146.21,146.42Z"/></g></g></svg>