<svg width="151" height="113" viewBox="0 0 151 113" fill="none" xmlns="http://www.w3.org/2000/svg">
<mask id="mask0_2748_4997" style="mask-type:alpha" maskUnits="userSpaceOnUse" x="-1" y="-1" width="77" height="115">
<rect x="-0.417969" y="-0.154541" width="76.2091" height="113.182" fill="#D9D9D9"/>
</mask>
<g mask="url(#mask0_2748_4997)">
<path d="M3.35412 0.0340953H169.354C170.917 0.0340953 172.184 1.30093 172.184 2.86364V143.02H0.524574V2.86364C0.524574 1.30093 1.7914 0.0340953 3.35412 0.0340953Z" fill="#231035" stroke="#3F2B58" stroke-width="0.377273"/>
<path d="M1.08984 2.86361C1.08984 1.61344 2.10331 0.599976 3.35348 0.599976H153.508C154.758 0.599976 155.772 1.61344 155.772 2.86361V7.39088H1.08984V2.86361Z" fill="#32184C"/>
<line x1="38.2511" y1="7.39087" x2="38.2511" y2="143.209" stroke="#3F2B58" stroke-width="0.377273"/>
<line x1="0.335938" y1="7.20229" x2="158.79" y2="7.20231" stroke="#3F2B58" stroke-width="0.377273"/>
<rect x="3.35352" y="10.4091" width="27.1636" height="4.52727" rx="0.754545" fill="#572D81"/>
<rect x="3.35352" y="19.4636" width="29.4273" height="3.01818" rx="0.754545" fill="#371B52"/>
<rect x="3.35352" y="26.2545" width="23.3909" height="3.01818" rx="0.754545" fill="#371B52"/>
<rect x="3.35352" y="39.8363" width="19.6182" height="3.01818" rx="0.754545" fill="#371B52"/>
<rect x="3.35352" y="60.209" width="25.6545" height="3.01818" rx="0.754545" fill="#371B52"/>
<rect x="3.35352" y="33.0454" width="26.4091" height="3.01818" rx="0.754545" fill="#371B52"/>
<rect x="3.35352" y="46.6272" width="21.8818" height="3.01818" rx="0.754545" fill="#371B52"/>
<rect x="3.35352" y="53.4182" width="28.6727" height="3.01818" rx="0.754545" fill="#371B52"/>
<rect x="32.0254" y="10.4091" width="4.52727" height="4.52727" rx="2.26364" fill="#572D81"/>
<rect x="49.3828" y="33.0455" width="38.4818" height="3.01818" rx="0.754545" fill="#572D81"/>
<rect x="49.3828" y="39.8364" width="99.6" height="3.01818" rx="0.754545" fill="#371B52"/>
<rect x="49.3828" y="45.1182" width="73.1909" height="3.01818" rx="0.754545" fill="#371B52"/>
<rect x="56.1738" y="57.1909" width="39.2364" height="3.01818" rx="0.754545" fill="#371B52"/>
<rect x="56.1738" y="65.4909" width="58.8545" height="3.01818" rx="0.754545" fill="#371B52"/>
<rect x="56.1738" y="73.7909" width="53.5727" height="3.01818" rx="0.754545" fill="#371B52"/>
<rect x="56.1738" y="82.0909" width="43.7636" height="3.01818" rx="0.754545" fill="#371B52"/>
<rect x="49.3828" y="56.4364" width="4.52727" height="4.52727" rx="2.26364" fill="#401E60"/>
<rect x="49.3828" y="64.7364" width="4.52727" height="4.52727" rx="2.26364" fill="#401E60"/>
<rect x="49.3828" y="73.0364" width="4.52727" height="4.52727" rx="2.26364" fill="#401E60"/>
<rect x="49.3828" y="81.3364" width="4.52727" height="4.52727" rx="2.26364" fill="#401E60"/>
<rect x="49.3828" y="19.4637" width="9.05455" height="9.05455" rx="4.52727" fill="#572D81"/>
<rect x="3.35352" y="2.86365" width="2.26364" height="2.26364" rx="1.13182" fill="#EF4444"/>
<rect x="6.37305" y="2.86365" width="2.26364" height="2.26364" rx="1.13182" fill="#FCD34D"/>
<rect x="9.39062" y="2.86365" width="2.26364" height="2.26364" rx="1.13182" fill="#4ADE80"/>
</g>
<mask id="mask1_2748_4997" style="mask-type:alpha" maskUnits="userSpaceOnUse" x="75" y="-1" width="77" height="115">
<rect x="75.791" y="-0.154541" width="75.4545" height="113.182" fill="#D9D9D9"/>
</mask>
<g mask="url(#mask1_2748_4997)">
<path d="M2.60021 0.222732H168.6C170.059 0.222732 171.241 1.40511 171.241 2.86364V142.832H-0.040696V2.86364C-0.040696 1.40511 1.14168 0.222732 2.60021 0.222732Z" fill="#000C1B" stroke="#172534" stroke-width="0.754545"/>
<path d="M0.335938 2.86361C0.335938 1.61344 1.3494 0.599976 2.59957 0.599976H152.754C154.004 0.599976 155.018 1.61344 155.018 2.86361V7.39088H0.335938V2.86361Z" fill="#001936"/>
<line x1="-0.417969" y1="7.20229" x2="158.037" y2="7.20231" stroke="#172534" stroke-width="0.377273"/>
<rect x="48.627" y="33.0455" width="38.4818" height="3.01818" rx="0.754545" fill="#172B52"/>
<rect x="48.627" y="39.8364" width="99.6" height="3.01818" rx="0.754545" fill="#151E3D"/>
<rect x="48.627" y="45.1182" width="73.1909" height="3.01818" rx="0.754545" fill="#151E3D"/>
<rect x="55.418" y="57.1909" width="39.2364" height="3.01818" rx="0.754545" fill="#151E3D"/>
<rect x="55.418" y="65.4909" width="58.8545" height="3.01818" rx="0.754545" fill="#151E3D"/>
<rect x="55.418" y="73.7909" width="53.5727" height="3.01818" rx="0.754545" fill="#151E3D"/>
<rect x="55.418" y="82.0909" width="43.7636" height="3.01818" rx="0.754545" fill="#151E3D"/>
<rect x="96.918" y="57.1909" width="4.52727" height="3.01818" rx="0.754545" fill="#151E3D"/>
<rect x="116.535" y="65.4909" width="4.52727" height="3.01818" rx="0.754545" fill="#151E3D"/>
<rect x="111.254" y="73.7909" width="4.52727" height="3.01818" rx="0.754545" fill="#151E3D"/>
<rect x="101.445" y="82.0909" width="4.52727" height="3.01818" rx="0.754545" fill="#151E3D"/>
</g>
</svg>
