<svg width="24" height="24" viewBox="0 0 24 24" fill="none" xmlns="http://www.w3.org/2000/svg">
<circle cx="12" cy="12" r="7.25" stroke="#3F76FF" stroke-linecap="round"/>
<path d="M12 7.75012C12 7.19784 12.4517 6.74051 12.994 6.84507C13.3409 6.91197 13.6811 7.01388 14.0091 7.14975C14.6461 7.41359 15.2248 7.8003 15.7123 8.28781C16.1998 8.77532 16.5865 9.35407 16.8504 9.99103C17.1142 10.628 17.25 11.3107 17.25 12.0001C17.25 12.6896 17.1142 13.3723 16.8504 14.0092C16.5865 14.6462 16.1998 15.2249 15.7123 15.7124C15.2248 16.1999 14.646 16.5867 14.0091 16.8505C13.6811 16.9864 13.3409 17.0883 12.994 17.1552C12.4517 17.2597 12 16.8024 12 16.2501L12 7.75012Z" fill="#3F76FF"/>
</svg>
