<svg width="153" height="117" viewBox="0 0 153 117" fill="none" xmlns="http://www.w3.org/2000/svg">
<g clip-path="url(#clip0_2748_5082)">
<path d="M0.394309 3.37187C0.394309 1.80423 1.66513 0.533409 3.23278 0.533409H169.756C171.324 0.533409 172.595 1.80423 172.595 3.37188V143.971H0.394309V3.37187Z" fill="#121212" stroke="#262626" stroke-width="0.378463"/>
<path d="M0.394309 3.37188C0.394309 1.80424 1.66514 0.533409 3.23278 0.533409H153.861C155.01 0.533409 155.942 1.46535 155.942 2.61495V7.7242H0.394309V3.37188Z" fill="#222222" stroke="#222222" stroke-width="0.378463"/>
<line x1="38.24" y1="7.91339" x2="38.24" y2="144.16" stroke="#262626" stroke-width="0.378463"/>
<rect x="3.22852" y="10.9411" width="27.2493" height="4.54155" rx="0.756925" fill="#404040"/>
<rect x="3.22852" y="20.0242" width="29.5201" height="3.0277" rx="0.756925" fill="#262626"/>
<rect x="3.22852" y="26.8365" width="23.4647" height="3.0277" rx="0.756925" fill="#262626"/>
<rect x="3.22852" y="40.4612" width="19.6801" height="3.0277" rx="0.756925" fill="#262626"/>
<rect x="3.22852" y="60.8982" width="25.7355" height="3.0277" rx="0.756925" fill="#262626"/>
<rect x="3.22852" y="33.6489" width="26.4924" height="3.0277" rx="0.756925" fill="#262626"/>
<rect x="3.22852" y="47.2735" width="21.9508" height="3.0277" rx="0.756925" fill="#262626"/>
<rect x="3.22852" y="54.0859" width="28.7632" height="3.0277" rx="0.756925" fill="#262626"/>
<rect x="31.9922" y="10.9411" width="4.54155" height="4.54155" rx="2.27078" fill="#404040"/>
<rect x="49.4043" y="33.6489" width="38.6032" height="3.0277" rx="0.756925" fill="#404040"/>
<rect x="49.4043" y="40.4612" width="99.9141" height="3.0277" rx="0.756925" fill="#262626"/>
<rect x="49.4043" y="45.7598" width="73.4217" height="3.0277" rx="0.756925" fill="#262626"/>
<rect x="56.2188" y="57.8705" width="39.3601" height="3.0277" rx="0.756925" fill="#262626"/>
<rect x="56.2188" y="66.1967" width="59.0402" height="3.0277" rx="0.756925" fill="#262626"/>
<rect x="56.2188" y="74.5229" width="53.7417" height="3.0277" rx="0.756925" fill="#262626"/>
<rect x="56.2188" y="82.8491" width="43.9017" height="3.0277" rx="0.756925" fill="#262626"/>
<rect x="97.8477" y="57.8705" width="4.54155" height="3.0277" rx="0.756925" fill="#262626"/>
<rect x="117.527" y="66.1967" width="4.54155" height="3.0277" rx="0.756925" fill="#262626"/>
<rect x="112.229" y="74.5229" width="4.54155" height="3.0277" rx="0.756925" fill="#262626"/>
<rect x="102.389" y="82.8491" width="4.54155" height="3.0277" rx="0.756925" fill="#262626"/>
<rect x="49.4043" y="57.1136" width="4.54155" height="4.54155" rx="2.27078" fill="#222222"/>
<rect x="49.4043" y="65.4398" width="4.54155" height="4.54155" rx="2.27078" fill="#222222"/>
<rect x="49.4043" y="73.7659" width="4.54155" height="4.54155" rx="2.27078" fill="#222222"/>
<rect x="49.4043" y="82.0922" width="4.54155" height="4.54155" rx="2.27078" fill="#222222"/>
<rect x="49.4043" y="20.0243" width="9.0831" height="9.0831" rx="4.54155" fill="#404040"/>
<rect x="3.23438" y="3.37183" width="2.27078" height="2.27078" rx="1.13539" fill="#EF4444"/>
<rect x="6.25977" y="3.37183" width="2.27078" height="2.27078" rx="1.13539" fill="#FCD34D"/>
<rect x="9.28711" y="3.37183" width="2.27078" height="2.27078" rx="1.13539" fill="#4ADE80"/>
<rect x="91.7949" y="33.6489" width="9.84003" height="3.0277" rx="0.756925" fill="#3F76FF"/>
</g>
<defs>
<clipPath id="clip0_2748_5082">
<rect width="152.142" height="116.566" fill="white" transform="translate(0.205078 0.344177)"/>
</clipPath>
</defs>
</svg>
