<svg width="152" height="115" viewBox="0 0 152 115" fill="none" xmlns="http://www.w3.org/2000/svg">
<path d="M0.514823 3.8651C0.514823 2.30226 1.78175 1.03533 3.34458 1.03533H169.357C170.92 1.03533 172.187 2.30226 172.187 3.86509V144.033H0.514823V3.8651Z" fill="#171717" stroke="white" stroke-width="0.377302"/>
<path d="M1.08008 3.86507C1.08008 2.6148 2.09362 1.60126 3.34389 1.60126H153.51C154.76 1.60126 155.774 2.6148 155.774 3.86507V8.39268H1.08008V3.86507Z" fill="#171717"/>
<line x1="38.2453" y1="8.3927" x2="38.2453" y2="144.221" stroke="white" stroke-width="0.377302"/>
<line x1="0.326172" y1="8.20405" x2="158.793" y2="8.20406" stroke="white" stroke-width="0.377302"/>
<rect x="3.34375" y="11.4111" width="27.1657" height="4.52762" rx="0.754603" fill="white"/>
<rect x="3.34375" y="20.4663" width="29.4295" height="3.01841" rx="0.754603" fill="#D4D4D4"/>
<rect x="3.34375" y="27.2578" width="23.3927" height="3.01841" rx="0.754603" fill="#D4D4D4"/>
<rect x="3.34375" y="40.8406" width="19.6197" height="3.01841" rx="0.754603" fill="#D4D4D4"/>
<rect x="3.34375" y="61.2148" width="25.6565" height="3.01841" rx="0.754603" fill="#D4D4D4"/>
<rect x="3.34375" y="34.0491" width="26.4111" height="3.01841" rx="0.754603" fill="#D4D4D4"/>
<rect x="3.34375" y="47.632" width="21.8835" height="3.01841" rx="0.754603" fill="#D4D4D4"/>
<rect x="3.34375" y="54.4234" width="28.6749" height="3.01841" rx="0.754603" fill="#D4D4D4"/>
<rect x="32.0176" y="11.4111" width="4.52762" height="4.52762" rx="2.26381" fill="white"/>
<rect x="49.375" y="34.0491" width="38.4848" height="3.01841" rx="0.754603" fill="#F1F1F1"/>
<rect x="49.375" y="40.8406" width="99.6076" height="3.01841" rx="0.754603" fill="#D4D4D4"/>
<rect x="91.4531" y="34.1725" width="9.84003" height="3.0277" rx="0.756925" fill="#3F76FF"/>
<rect x="49.375" y="46.1228" width="73.1965" height="3.01841" rx="0.754603" fill="#D4D4D4"/>
<rect x="56.168" y="58.1965" width="39.2394" height="3.01841" rx="0.754603" fill="#D4D4D4"/>
<rect x="56.168" y="66.4971" width="58.859" height="3.01841" rx="0.754603" fill="#D4D4D4"/>
<rect x="56.168" y="74.7977" width="53.5768" height="3.01841" rx="0.754603" fill="#D4D4D4"/>
<rect x="56.168" y="83.0984" width="43.767" height="3.01841" rx="0.754603" fill="#D4D4D4"/>
<rect x="97.668" y="58.1965" width="4.52762" height="3.01841" rx="0.754603" fill="#D4D4D4"/>
<rect x="117.289" y="66.4971" width="4.52762" height="3.01841" rx="0.754603" fill="#D4D4D4"/>
<rect x="112.008" y="74.7977" width="4.52762" height="3.01841" rx="0.754603" fill="#D4D4D4"/>
<rect x="102.197" y="83.0984" width="4.52762" height="3.01841" rx="0.754603" fill="#D4D4D4"/>
<rect x="49.375" y="57.4418" width="4.52762" height="4.52762" rx="2.26381" fill="white"/>
<rect x="49.375" y="65.7425" width="4.52762" height="4.52762" rx="2.26381" fill="white"/>
<rect x="49.375" y="74.0432" width="4.52762" height="4.52762" rx="2.26381" fill="white"/>
<rect x="49.375" y="82.3438" width="4.52762" height="4.52762" rx="2.26381" fill="white"/>
<rect x="49.375" y="20.4663" width="9.05524" height="9.05524" rx="4.52762" fill="#F1F1F1"/>
<rect x="3.3457" y="3.86511" width="2.26381" height="2.26381" rx="1.1319" fill="#EF4444"/>
<rect x="6.36328" y="3.86511" width="2.26381" height="2.26381" rx="1.1319" fill="#FCD34D"/>
<rect x="9.38281" y="3.86511" width="2.26381" height="2.26381" rx="1.1319" fill="#4ADE80"/>
</svg>
