<svg width="12" height="12" viewBox="0 0 12 12" fill="none" xmlns="http://www.w3.org/2000/svg">
<path d="M2.922 11.6668C2.56691 11.6668 2.26617 11.5436 2.01978 11.2972C1.77339 11.0508 1.6502 10.7501 1.6502 10.395V2.10012H1.48353C1.34165 2.10012 1.2173 2.0467 1.11046 1.93987C1.00362 1.83303 0.950195 1.70868 0.950195 1.5668C0.950195 1.42492 1.00362 1.30057 1.11046 1.19373C1.2173 1.08689 1.34272 1.03347 1.48673 1.03347H4.01685C4.01685 0.865956 4.08095 0.720234 4.20915 0.5963C4.33736 0.472367 4.48522 0.4104 4.65275 0.4104H7.33095C7.49847 0.4104 7.64633 0.472367 7.77455 0.5963C7.90275 0.720234 7.96685 0.865956 7.96685 1.03347H10.497C10.641 1.03347 10.7664 1.08689 10.8732 1.19373C10.9801 1.30057 11.0335 1.42492 11.0335 1.5668C11.0335 1.70868 10.9801 1.83303 10.8732 1.93987C10.7664 2.0467 10.642 2.10012 10.5002 2.10012H10.3335V10.395C10.3335 10.7501 10.2103 11.0508 9.96391 11.2972C9.71752 11.5436 9.41678 11.6668 9.0617 11.6668H2.922ZM2.71685 2.10012V10.395C2.71685 10.4548 2.73608 10.504 2.77455 10.5424C2.81301 10.5809 2.86216 10.6001 2.922 10.6001H9.0617C9.12153 10.6001 9.17068 10.5809 9.20915 10.5424C9.24761 10.504 9.26685 10.4548 9.26685 10.395V2.10012H2.71685ZM4.2361 8.6668C4.2361 8.80868 4.28951 8.93303 4.39635 9.03987C4.50318 9.1467 4.62753 9.20012 4.76941 9.20012C4.91129 9.20012 5.03565 9.1467 5.14248 9.03987C5.24932 8.93303 5.30275 8.80868 5.30275 8.6668V4.03343C5.30275 3.89156 5.24932 3.7672 5.14248 3.66037C5.03565 3.55353 4.91129 3.50012 4.76941 3.50012C4.62753 3.50012 4.50318 3.55353 4.39635 3.66037C4.28951 3.7672 4.2361 3.89156 4.2361 4.03343V8.6668ZM6.68095 8.6668C6.68095 8.80868 6.73437 8.93303 6.84121 9.03987C6.94805 9.1467 7.0724 9.20012 7.21428 9.20012C7.35616 9.20012 7.48051 9.1467 7.58735 9.03987C7.69418 8.93303 7.7476 8.80868 7.7476 8.6668V4.03343C7.7476 3.89156 7.69418 3.7672 7.58735 3.66037C7.48051 3.55353 7.35616 3.50012 7.21428 3.50012C7.0724 3.50012 6.94805 3.55353 6.84121 3.66037C6.73437 3.7672 6.68095 3.89156 6.68095 4.03343V8.6668ZM2.71685 2.10012V10.395C2.71685 10.4548 2.73608 10.504 2.77455 10.5424C2.81301 10.5809 2.86216 10.6001 2.922 10.6001H2.71685V2.10012Z" fill="#A3A3A3"/>
</svg>
