<svg width="107" height="100" viewBox="0 0 107 100" fill="none" xmlns="http://www.w3.org/2000/svg">
<path d="M78.9001 75.9365L25.1319 89.7824C23.308 90.2499 21.3732 89.9748 19.7519 89.0175C18.1305 88.0602 16.9552 86.4989 16.4836 84.6761L0.222642 21.5297C-0.244832 19.7058 0.03025 17.771 0.987542 16.1497C1.94483 14.5284 3.50616 13.353 5.32897 12.8814L55.3515 0L68.1549 5.73167L84.0064 67.2882C84.4739 69.112 84.1988 71.0469 83.2415 72.6682C82.2842 74.2895 80.7229 75.4649 78.9001 75.9365Z" fill="#F2F2F2"/>
<path d="M5.84078 14.8612C4.54271 15.1971 3.43086 16.0341 2.74915 17.1887C2.06744 18.3432 1.87155 19.7211 2.20445 21.0199L18.4654 84.1663C18.8012 85.4644 19.6382 86.5762 20.7928 87.2579C21.9474 87.9396 23.3252 88.1355 24.624 87.8026L78.3922 73.9567C79.6903 73.6208 80.8021 72.7838 81.4839 71.6293C82.1656 70.4747 82.3615 69.0968 82.0286 67.798L66.4227 7.19533L55.1708 2.1582L5.84078 14.8612Z" fill="white"/>
<path d="M68.0185 6.0575L59.6972 8.20034C59.0897 8.35677 58.445 8.26548 57.9048 7.94654C57.3646 7.6276 56.9733 7.10714 56.8168 6.49966L55.2342 0.35362C55.2272 0.326713 55.228 0.298397 55.2365 0.271921C55.2449 0.245445 55.2606 0.22188 55.2818 0.203928C55.303 0.185976 55.3289 0.174364 55.3564 0.170424C55.3839 0.166484 55.4119 0.170375 55.4373 0.181651L68.0417 5.77923C68.0697 5.79169 68.0932 5.81257 68.1089 5.83898C68.1245 5.86538 68.1315 5.896 68.129 5.92658C68.1264 5.95717 68.1145 5.98621 68.0947 6.00966C68.0749 6.03312 68.0483 6.04984 68.0185 6.0575Z" fill="#F2F2F2"/>
<path d="M63.6381 59.983L39.1582 66.2868C39.0078 66.3256 38.8513 66.3343 38.6975 66.3125C38.5437 66.2907 38.3957 66.2389 38.262 66.1599C38.1283 66.081 38.0114 65.9764 37.9181 65.8523C37.8247 65.7282 37.7568 65.5869 37.718 65.4365C37.6793 65.2861 37.6706 65.1295 37.6923 64.9758C37.7141 64.822 37.766 64.674 37.8449 64.5403C37.9239 64.4065 38.0284 64.2897 38.1525 64.1963C38.2767 64.103 38.418 64.035 38.5684 63.9963L63.0483 57.6924C63.1987 57.6537 63.3552 57.645 63.509 57.6668C63.6628 57.6885 63.8108 57.7404 63.9445 57.8193C64.0782 57.8983 64.1951 58.0028 64.2884 58.127C64.3818 58.2511 64.4497 58.3924 64.4885 58.5428C64.5272 58.6932 64.5359 58.8497 64.5141 59.0035C64.4924 59.1573 64.4405 59.3052 64.3616 59.439C64.2826 59.5727 64.1781 59.6896 64.0539 59.7829C63.9298 59.8762 63.7885 59.9442 63.6381 59.983Z" fill="#CCCCCC"/>
<path d="M69.3623 62.6316L40.1582 70.152C39.8545 70.2302 39.5321 70.1846 39.262 70.0251C38.9919 69.8657 38.7962 69.6054 38.718 69.3017C38.6398 68.9979 38.6855 68.6756 38.8449 68.4055C39.0044 68.1354 39.2646 67.9397 39.5684 67.8615L68.7725 60.3411C69.0761 60.2632 69.3983 60.309 69.6681 60.4685C69.938 60.628 70.1335 60.8881 70.2116 61.1917C70.2898 61.4953 70.2443 61.8175 70.085 62.0875C69.9257 62.3575 69.6658 62.5532 69.3623 62.6316Z" fill="#CCCCCC"/>
<path d="M29.1672 73.8792C31.4757 73.8792 33.3471 72.0078 33.3471 69.6993C33.3471 67.3908 31.4757 65.5194 29.1672 65.5194C26.8587 65.5194 24.9873 67.3908 24.9873 69.6993C24.9873 72.0078 26.8587 73.8792 29.1672 73.8792Z" fill="#E6E6E6"/>
<path d="M61.0382 49.0439L28.5264 57.4129C27.5868 57.6537 26.5901 57.5119 25.7549 57.0187C24.9197 56.5254 24.3143 55.7211 24.0714 54.782L17.2582 28.3141C17.0174 27.3745 17.1592 26.3778 17.6525 25.5426C18.1457 24.7074 18.9501 24.102 19.8891 23.8591L52.4009 15.4901C53.3405 15.2494 54.3372 15.3912 55.1724 15.8844C56.0076 16.3776 56.613 17.182 56.8558 18.121L63.6691 44.589C63.9098 45.5285 63.768 46.5253 63.2748 47.3604C62.7816 48.1956 61.9772 48.8011 61.0382 49.0439Z" fill="white"/>
<path d="M61.0382 49.0439L28.5264 57.4129C27.5868 57.6537 26.5901 57.5119 25.7549 57.0187C24.9197 56.5254 24.3143 55.7211 24.0714 54.782L17.2582 28.3141C17.0174 27.3745 17.1592 26.3778 17.6525 25.5426C18.1457 24.7074 18.9501 24.102 19.8891 23.8591L52.4009 15.4901C53.3405 15.2494 54.3372 15.3912 55.1724 15.8844C56.0076 16.3776 56.613 17.182 56.8558 18.121L63.6691 44.589C63.9098 45.5285 63.768 46.5253 63.2748 47.3604C62.7816 48.1956 61.9772 48.8011 61.0382 49.0439ZM19.9964 24.276C19.1678 24.4902 18.4581 25.0245 18.0229 25.7614C17.5877 26.4983 17.4626 27.3778 17.675 28.2068L24.4883 54.6747C24.7025 55.5033 25.2367 56.213 25.9737 56.6482C26.7106 57.0834 27.59 57.2085 28.4191 56.9961L60.9309 48.6271C61.7595 48.4128 62.4692 47.8786 62.9044 47.1417C63.3396 46.4048 63.4647 45.5253 63.2523 44.6962L56.439 18.2283C56.2247 17.3998 55.6905 16.69 54.9536 16.2548C54.2167 15.8196 53.3372 15.6945 52.5082 15.9069L19.9964 24.276Z" fill="#E6E6E6"/>
<path d="M50.753 24.3898L34.3447 28.6135C34.2012 28.6536 34.0479 28.6377 33.9158 28.569C33.7836 28.5003 33.6824 28.3841 33.6327 28.2437C33.6095 28.1703 33.6016 28.0931 33.6093 28.0165C33.617 27.94 33.6402 27.8659 33.6775 27.7986C33.7149 27.7314 33.7655 27.6725 33.8263 27.6254C33.8872 27.5784 33.957 27.5442 34.0314 27.5251L50.734 23.2255C51.4087 23.5674 51.2314 24.2666 50.753 24.3898Z" fill="#F2F2F2"/>
<path d="M51.4951 27.2678L35.0869 31.4916C34.9434 31.5316 34.7901 31.5157 34.6579 31.447C34.5258 31.3784 34.4246 31.2621 34.3749 31.1217C34.3517 31.0484 34.3438 30.9711 34.3515 30.8946C34.3592 30.8181 34.3824 30.7439 34.4197 30.6767C34.457 30.6094 34.5077 30.5505 34.5685 30.5035C34.6293 30.4564 34.6991 30.4223 34.7736 30.4031L51.4762 26.1036C52.1509 26.4455 51.9736 27.1447 51.4951 27.2678Z" fill="#F2F2F2"/>
<path d="M52.959 33.173L27.9169 39.6192C27.7735 39.6592 27.6202 39.6433 27.488 39.5747C27.3559 39.506 27.2547 39.3897 27.205 39.2494C27.1818 39.176 27.1739 39.0987 27.1816 39.0222C27.1893 38.9457 27.2125 38.8716 27.2498 38.8043C27.2871 38.7371 27.3377 38.6781 27.3986 38.6311C27.4594 38.5841 27.5292 38.5499 27.6037 38.5307L52.9402 32.0087C53.6149 32.3506 53.4374 33.0498 52.959 33.173Z" fill="#F2F2F2"/>
<path d="M53.6973 36.052L28.6552 42.4982C28.5118 42.5383 28.3585 42.5224 28.2263 42.4537C28.0941 42.3851 27.993 42.2688 27.9432 42.1284C27.9201 42.0551 27.9121 41.9778 27.9198 41.9013C27.9276 41.8248 27.9508 41.7506 27.9881 41.6834C28.0254 41.6161 28.076 41.5572 28.1369 41.5101C28.1977 41.4631 28.2675 41.429 28.342 41.4098L53.6785 34.8878C54.3532 35.2296 54.1757 35.9289 53.6973 36.052Z" fill="#F2F2F2"/>
<path d="M54.4394 38.9292L29.3974 45.3754C29.254 45.4155 29.1007 45.3996 28.9685 45.3309C28.8363 45.2623 28.7352 45.146 28.6854 45.0056C28.6623 44.9323 28.6543 44.855 28.662 44.7785C28.6697 44.702 28.693 44.6278 28.7303 44.5606C28.7676 44.4933 28.8182 44.4344 28.8791 44.3873C28.9399 44.3403 29.0097 44.3062 29.0842 44.287L54.4207 37.765C55.0954 38.1068 54.9179 38.8061 54.4394 38.9292Z" fill="#F2F2F2"/>
<path d="M55.1816 41.8077L30.1396 48.2539C29.9962 48.294 29.8429 48.2781 29.7107 48.2094C29.5785 48.1408 29.4773 48.0245 29.4276 47.8841C29.4045 47.8108 29.3965 47.7335 29.4042 47.657C29.4119 47.5805 29.4352 47.5063 29.4725 47.4391C29.5098 47.3718 29.5604 47.3129 29.6212 47.2658C29.6821 47.2188 29.7519 47.1847 29.8264 47.1655L55.1629 40.6435C55.8376 40.9853 55.6601 41.6846 55.1816 41.8077Z" fill="#F2F2F2"/>
<path d="M55.9238 44.6853L30.8818 51.1315C30.7383 51.1716 30.585 51.1557 30.4529 51.087C30.3207 51.0183 30.2195 50.9021 30.1698 50.7617C30.1467 50.6883 30.1387 50.6111 30.1464 50.5345C30.1541 50.458 30.1773 50.3839 30.2147 50.3166C30.252 50.2494 30.3026 50.1905 30.3634 50.1434C30.4243 50.0964 30.4941 50.0622 30.5685 50.0431L55.9051 43.521C56.5798 43.8629 56.4023 44.5621 55.9238 44.6853Z" fill="#F2F2F2"/>
<path d="M29.4757 71.1645C29.3846 71.1881 29.2884 71.1815 29.2015 71.1456L29.1961 71.1434L28.0574 70.6606C28.0045 70.6383 27.9566 70.6057 27.9164 70.5648C27.8761 70.5239 27.8443 70.4754 27.8228 70.4222C27.8013 70.369 27.7905 70.3121 27.791 70.2547C27.7915 70.1973 27.8034 70.1406 27.8258 70.0878C27.8483 70.035 27.8809 69.9871 27.9219 69.947C27.9629 69.9068 28.0114 69.8751 28.0646 69.8536C28.1178 69.8322 28.1748 69.8215 28.2322 69.8221C28.2895 69.8227 28.3462 69.8346 28.399 69.8572L29.1369 70.171L30.1038 67.8965C30.1262 67.8437 30.1588 67.7959 30.1997 67.7558C30.2406 67.7156 30.289 67.684 30.3421 67.6625C30.3953 67.6411 30.4521 67.6303 30.5094 67.6309C30.5667 67.6314 30.6233 67.6432 30.6761 67.6656L30.6704 67.6806L30.6765 67.6656C30.7829 67.711 30.867 67.7968 30.9102 67.9041C30.9535 68.0115 30.9524 68.1316 30.9072 68.2381L29.7697 70.9125C29.7433 70.9741 29.7031 71.0289 29.6521 71.0725C29.6012 71.1161 29.5409 71.1474 29.4759 71.1639L29.4757 71.1645Z" fill="white"/>
<path d="M99.5205 100H43.9982C42.1153 99.9979 40.3102 99.249 38.9789 97.9176C37.6475 96.5863 36.8986 94.7812 36.8965 92.8983V27.6919C36.8986 25.809 37.6475 24.0039 38.9789 22.6725C40.3102 21.3412 42.1153 20.5923 43.9982 20.5902H95.6526L106.622 29.3336V92.8983C106.62 94.7812 105.871 96.5863 104.54 97.9176C103.208 99.249 101.403 99.9979 99.5205 100Z" fill="#E6E6E6"/>
<path d="M43.9987 22.6346C42.6579 22.6361 41.3724 23.1695 40.4243 24.1175C39.4762 25.0656 38.9429 26.3511 38.9414 27.6919V92.8984C38.9429 94.2392 39.4762 95.5246 40.4243 96.4727C41.3724 97.4208 42.6579 97.9541 43.9987 97.9556H99.521C100.862 97.9541 102.147 97.4208 103.095 96.4727C104.043 95.5246 104.577 94.2392 104.578 92.8984V30.3186L94.938 22.6346H43.9987Z" fill="white"/>
<path d="M88.7229 41.5949H63.4443C63.1307 41.5949 62.8299 41.4703 62.6081 41.2485C62.3863 41.0267 62.2617 40.7259 62.2617 40.4122C62.2617 40.0986 62.3863 39.7978 62.6081 39.576C62.8299 39.3542 63.1307 39.2296 63.4443 39.2296H88.7229C89.0365 39.2296 89.3373 39.3542 89.5591 39.576C89.7809 39.7978 89.9055 40.0986 89.9055 40.4122C89.9055 40.7259 89.7809 41.0267 89.5591 41.2485C89.3373 41.4703 89.0365 41.5949 88.7229 41.5949Z" fill="#3F76FF"/>
<path d="M93.6035 45.5862H63.4467C63.1333 45.5858 62.8329 45.461 62.6114 45.2392C62.39 45.0175 62.2656 44.7169 62.2656 44.4036C62.2656 44.0902 62.39 43.7896 62.6114 43.5679C62.8329 43.3461 63.1333 43.2214 63.4467 43.2209H93.6035C93.7589 43.2207 93.9129 43.2512 94.0566 43.3105C94.2002 43.3698 94.3308 43.4569 94.4408 43.5667C94.5508 43.6766 94.638 43.807 94.6976 43.9506C94.7571 44.0942 94.7877 44.2481 94.7877 44.4036C94.7877 44.559 94.7571 44.7129 94.6976 44.8565C94.638 45.0001 94.5508 45.1305 94.4408 45.2404C94.3308 45.3502 94.2002 45.4373 94.0566 45.4966C93.9129 45.556 93.7589 45.5864 93.6035 45.5862Z" fill="#3F76FF"/>
<path d="M88.722 57.1159H63.4443C63.1306 57.1159 62.8298 57.2405 62.6081 57.4623C62.3863 57.684 62.2617 57.9848 62.2617 58.2984C62.2617 58.6121 62.3863 58.9129 62.6081 59.1346C62.8298 59.3564 63.1306 59.481 63.4443 59.481H88.722C89.0356 59.481 89.3364 59.3564 89.5582 59.1346C89.7799 58.9129 89.9045 58.6121 89.9045 58.2984C89.9045 57.9848 89.7799 57.684 89.5582 57.4623C89.3364 57.2405 89.0356 57.1159 88.722 57.1159Z" fill="#CCCCCC"/>
<path d="M93.6006 61.108H63.4443C63.1306 61.108 62.8298 61.2326 62.6081 61.4543C62.3863 61.6761 62.2617 61.9769 62.2617 62.2905C62.2617 62.6041 62.3863 62.9049 62.6081 63.1267C62.8298 63.3485 63.1306 63.4731 63.4443 63.4731H93.6006C93.9142 63.4731 94.215 63.3485 94.4368 63.1267C94.6586 62.9049 94.7831 62.6041 94.7831 62.2905C94.7831 61.9769 94.6586 61.6761 94.4368 61.4543C94.215 61.2326 93.9142 61.108 93.6006 61.108Z" fill="#CCCCCC"/>
<path d="M88.7229 77.3689H63.4443C63.1307 77.3689 62.8299 77.2443 62.6081 77.0226C62.3863 76.8008 62.2617 76.5 62.2617 76.1863C62.2617 75.8727 62.3863 75.5719 62.6081 75.3501C62.8299 75.1283 63.1307 75.0037 63.4443 75.0037H88.7229C89.0365 75.0037 89.3373 75.1283 89.5591 75.3501C89.7809 75.5719 89.9055 75.8727 89.9055 76.1863C89.9055 76.5 89.7809 76.8008 89.5591 77.0226C89.3373 77.2443 89.0365 77.3689 88.7229 77.3689Z" fill="#CCCCCC"/>
<path d="M93.6035 81.3605H63.4467C63.1333 81.36 62.8329 81.2353 62.6114 81.0135C62.39 80.7918 62.2656 80.4912 62.2656 80.1778C62.2656 79.8645 62.39 79.5639 62.6114 79.3422C62.8329 79.1204 63.1333 78.9956 63.4467 78.9952H93.6035C93.7589 78.995 93.9129 79.0254 94.0566 79.0848C94.2002 79.1441 94.3308 79.2312 94.4408 79.341C94.5508 79.4509 94.638 79.5813 94.6976 79.7249C94.7571 79.8685 94.7877 80.0224 94.7877 80.1778C94.7877 80.3333 94.7571 80.4872 94.6976 80.6308C94.638 80.7744 94.5508 80.9048 94.4408 81.0146C94.3308 81.1245 94.2002 81.2116 94.0566 81.2709C93.9129 81.3302 93.7589 81.3607 93.6035 81.3605Z" fill="#CCCCCC"/>
<path d="M52.9172 46.5879C55.2257 46.5879 57.0971 44.7165 57.0971 42.408C57.0971 40.0995 55.2257 38.2281 52.9172 38.2281C50.6087 38.2281 48.7373 40.0995 48.7373 42.408C48.7373 44.7165 50.6087 46.5879 52.9172 46.5879Z" fill="#3F76FF"/>
<path d="M52.5006 44.0024C52.4065 44.0026 52.315 43.9721 52.2398 43.9157L52.2351 43.9122L51.2527 43.1608C51.2071 43.1259 51.1688 43.0825 51.14 43.0328C51.1112 42.9831 51.0925 42.9283 51.0849 42.8714C51.0773 42.8145 51.081 42.7566 51.0958 42.7012C51.1106 42.6457 51.1362 42.5937 51.1711 42.5481C51.2061 42.5026 51.2497 42.4644 51.2994 42.4357C51.3491 42.407 51.404 42.3884 51.4609 42.3809C51.5178 42.3735 51.5757 42.3773 51.6311 42.3922C51.6865 42.4071 51.7385 42.4329 51.7839 42.4679L52.4202 42.9558L53.9238 40.9942C53.9586 40.9488 54.0021 40.9106 54.0517 40.8819C54.1014 40.8533 54.1561 40.8346 54.2129 40.8271C54.2698 40.8196 54.3275 40.8234 54.3829 40.8382C54.4382 40.853 54.4901 40.8786 54.5356 40.9134L54.5264 40.9265L54.536 40.9135C54.6277 40.984 54.6877 41.0881 54.7029 41.2028C54.718 41.3175 54.687 41.4336 54.6167 41.5255L52.8482 43.8316C52.8072 43.8848 52.7546 43.9278 52.6944 43.9573C52.6342 43.9868 52.568 44.0021 52.5009 44.0019L52.5006 44.0024Z" fill="white"/>
<path d="M57.5263 60.2949C57.5265 60.8438 57.4186 61.3875 57.2087 61.8948C56.9988 62.402 56.691 62.863 56.3029 63.2513C55.9148 63.6395 55.454 63.9476 54.9468 64.1578C54.4397 64.368 53.8961 64.4762 53.3471 64.4763C53.3112 64.477 53.2753 64.4755 53.2395 64.4719C52.4176 64.4509 51.6202 64.1879 50.9471 63.7159C50.2739 63.2439 49.7549 62.5838 49.455 61.8183C49.1551 61.0528 49.0876 60.2159 49.261 59.4122C49.4344 58.6086 49.8409 57.8739 50.4298 57.3001C51.0186 56.7264 51.7636 56.339 52.5714 56.1865C53.3793 56.034 54.2142 56.1232 54.9717 56.4428C55.7292 56.7625 56.3756 57.2984 56.8299 57.9836C57.2843 58.6687 57.5266 59.4727 57.5263 60.2949Z" fill="#CCCCCC"/>
<path d="M52.9172 82.3622C55.2257 82.3622 57.0971 80.4908 57.0971 78.1823C57.0971 75.8738 55.2257 74.0023 52.9172 74.0023C50.6087 74.0023 48.7373 75.8738 48.7373 78.1823C48.7373 80.4908 50.6087 82.3622 52.9172 82.3622Z" fill="#CCCCCC"/>
<path d="M106.409 29.6148H97.8164C97.1891 29.6148 96.5875 29.3657 96.1439 28.9221C95.7004 28.4785 95.4512 27.8769 95.4512 27.2496V20.9031C95.4512 20.8753 95.459 20.848 95.4738 20.8245C95.4885 20.801 95.5096 20.7821 95.5346 20.77C95.5597 20.7579 95.5876 20.7531 95.6152 20.7561C95.6428 20.7592 95.669 20.7699 95.6908 20.7872L106.501 29.3511C106.525 29.3702 106.543 29.3963 106.551 29.4257C106.56 29.4552 106.559 29.4866 106.549 29.5156C106.539 29.5446 106.52 29.5697 106.495 29.5875C106.47 29.6053 106.44 29.6148 106.409 29.6148Z" fill="#CCCCCC"/>
</svg>
