<svg width="125" height="110" viewBox="0 0 125 110" fill="none" xmlns="http://www.w3.org/2000/svg">
<path d="M53.2999 108.874C23.9102 108.874 0 84.9641 0 55.5744C0 26.1846 23.9101 2.27449 53.2999 2.27449C61.8394 2.28326 70.2524 4.33925 77.8334 8.27008C85.4144 12.2009 91.9425 17.892 96.8704 24.8662L96.3661 25.2225C91.4954 18.3289 85.0428 12.7036 77.5495 8.81817C70.0562 4.93276 61.7406 2.9005 53.2999 2.89181C24.2508 2.89181 0.617316 26.5252 0.617316 55.5744C0.617316 84.6235 24.2508 108.257 53.2999 108.257C61.3921 108.283 69.3801 106.433 76.6367 102.852C83.8932 99.2704 90.2206 94.0554 95.1219 87.6163L95.6114 87.9919C90.6529 94.5064 84.2514 99.7826 76.9099 103.406C69.5684 107.029 61.4868 108.901 53.2999 108.874Z" fill="#E5E5E5"/>
<path d="M75.3344 46.6487C74.75 46.6487 74.1788 46.4754 73.6929 46.1508C73.2071 45.8261 72.8284 45.3647 72.6048 44.8249C72.3812 44.285 72.3227 43.691 72.4367 43.1178C72.5507 42.5447 72.832 42.0183 73.2452 41.6051C73.6584 41.1919 74.1849 40.9105 74.758 40.7965C75.3311 40.6825 75.9251 40.741 76.465 40.9647C77.0048 41.1883 77.4663 41.567 77.7909 42.0528C78.1156 42.5387 78.2888 43.1099 78.2888 43.6942C78.2888 44.4778 77.9776 45.2293 77.4235 45.7834C76.8694 46.3374 76.1179 46.6487 75.3344 46.6487Z" fill="#E5E5E5"/>
<path d="M60.6403 11.7591C63.8875 11.7591 66.5198 9.12674 66.5198 5.87955C66.5198 2.63236 63.8875 0 60.6403 0C57.3931 0 54.7607 2.63236 54.7607 5.87955C54.7607 9.12674 57.3931 11.7591 60.6403 11.7591Z" fill="#E5E5E5"/>
<path d="M59.841 8.93958C59.7395 8.93958 59.6393 8.91593 59.5485 8.87052C59.4577 8.8251 59.3787 8.75916 59.3178 8.67792L57.7138 6.53917C57.6623 6.47046 57.6248 6.39228 57.6035 6.30908C57.5822 6.22588 57.5774 6.1393 57.5896 6.05428C57.6017 5.96925 57.6305 5.88746 57.6743 5.81356C57.718 5.73966 57.7759 5.6751 57.8446 5.62357C57.9133 5.57204 57.9915 5.53455 58.0747 5.51324C58.1579 5.49193 58.2445 5.48721 58.3295 5.49936C58.4145 5.51151 58.4963 5.54028 58.5702 5.58404C58.6441 5.6278 58.7087 5.68569 58.7602 5.7544L59.8096 7.15351L62.5049 3.11064C62.6017 2.96758 62.7511 2.86859 62.9206 2.83528C63.09 2.80197 63.2658 2.83704 63.4095 2.93285C63.5532 3.02865 63.6532 3.17741 63.6876 3.34665C63.722 3.5159 63.6881 3.69189 63.5933 3.83623L60.3852 8.64832C60.3272 8.73535 60.2491 8.8072 60.1576 8.85784C60.0661 8.90848 59.9638 8.93643 59.8592 8.93936L59.841 8.93958Z" fill="white"/>
<path d="M67.8403 16.4868H53.7015C52.8373 16.4868 52.1367 17.1874 52.1367 18.0516V18.6147C52.1367 19.4789 52.8373 20.1794 53.7015 20.1794H67.8403C68.7045 20.1794 69.405 19.4789 69.405 18.6147V18.0516C69.405 17.1874 68.7045 16.4868 67.8403 16.4868Z" fill="#E5E5E5"/>
<path d="M76.6117 23.8721H44.9329C44.0687 23.8721 43.3682 24.5726 43.3682 25.4368V26C43.3682 26.8641 44.0687 27.5647 44.9329 27.5647H76.6117C77.4759 27.5647 78.1764 26.8641 78.1764 26V25.4368C78.1764 24.5726 77.4759 23.8721 76.6117 23.8721Z" fill="#E5E5E5"/>
<path d="M76.6117 31.2573H44.9329C44.0687 31.2573 43.3682 31.9579 43.3682 32.8221V33.3852C43.3682 34.2494 44.0687 34.95 44.9329 34.95H76.6117C77.4759 34.95 78.1764 34.2494 78.1764 33.3852V32.8221C78.1764 31.9579 77.4759 31.2573 76.6117 31.2573Z" fill="#E5E5E5"/>
<path d="M57.3422 110C56.7578 110 56.1866 109.827 55.7008 109.502C55.2149 109.177 54.8362 108.716 54.6126 108.176C54.389 107.636 54.3305 107.042 54.4445 106.469C54.5585 105.896 54.8399 105.37 55.253 104.956C55.6662 104.543 56.1927 104.262 56.7658 104.148C57.3389 104.034 57.9329 104.092 58.4728 104.316C59.0127 104.54 59.4741 104.918 59.7987 105.404C60.1234 105.89 60.2966 106.461 60.2966 107.046C60.2966 107.829 59.9854 108.581 59.4313 109.135C58.8772 109.689 58.1257 110 57.3422 110Z" fill="#E5E5E5"/>
<path d="M42.6481 75.1104C45.8953 75.1104 48.5277 72.478 48.5277 69.2308C48.5277 65.9836 45.8953 63.3513 42.6481 63.3513C39.4009 63.3513 36.7686 65.9836 36.7686 69.2308C36.7686 72.478 39.4009 75.1104 42.6481 75.1104Z" fill="#E5E5E5"/>
<path d="M41.8478 72.2909C41.7463 72.2909 41.6462 72.2672 41.5553 72.2218C41.4645 72.1764 41.3856 72.1104 41.3247 72.0292L39.7206 69.8905C39.6691 69.8217 39.6316 69.7436 39.6103 69.6604C39.589 69.5772 39.5843 69.4906 39.5964 69.4056C39.6086 69.3205 39.6373 69.2387 39.6811 69.1648C39.7249 69.0909 39.7828 69.0264 39.8515 68.9749C39.9202 68.9233 39.9984 68.8858 40.0816 68.8645C40.1648 68.8432 40.2513 68.8385 40.3364 68.8506C40.4214 68.8628 40.5032 68.8916 40.5771 68.9353C40.651 68.9791 40.7155 69.037 40.7671 69.1057L41.8165 70.5048L44.5118 66.4619C44.5591 66.3898 44.6203 66.3278 44.6917 66.2795C44.7631 66.2311 44.8434 66.1974 44.928 66.1802C45.0125 66.163 45.0996 66.1627 45.1842 66.1793C45.2689 66.1959 45.3494 66.2291 45.4211 66.2769C45.4929 66.3248 45.5545 66.3863 45.6024 66.4581C45.6503 66.5298 45.6835 66.6103 45.7001 66.695C45.7168 66.7796 45.7165 66.8667 45.6993 66.9512C45.6822 67.0358 45.6484 67.1161 45.6001 67.1875L42.3921 71.9996C42.334 72.0866 42.256 72.1585 42.1644 72.2091C42.0729 72.2598 41.9706 72.2877 41.866 72.2906L41.8478 72.2909Z" fill="white"/>
<path d="M49.8481 79.8381H35.7093C34.8451 79.8381 34.1445 80.5386 34.1445 81.4028V81.966C34.1445 82.8301 34.8451 83.5307 35.7093 83.5307H49.8481C50.7123 83.5307 51.4128 82.8301 51.4128 81.966V81.4028C51.4128 80.5386 50.7123 79.8381 49.8481 79.8381Z" fill="#E5E5E5"/>
<path d="M58.6176 87.2233H26.9388C26.0746 87.2233 25.374 87.9239 25.374 88.7881V89.3512C25.374 90.2154 26.0746 90.916 26.9388 90.916H58.6176C59.4817 90.916 60.1823 90.2154 60.1823 89.3512V88.7881C60.1823 87.9239 59.4817 87.2233 58.6176 87.2233Z" fill="#E5E5E5"/>
<path d="M58.6176 94.6086H26.9388C26.0746 94.6086 25.374 95.3092 25.374 96.1733V96.7365C25.374 97.6007 26.0746 98.3012 26.9388 98.3012H58.6176C59.4817 98.3012 60.1823 97.6007 60.1823 96.7365V96.1733C60.1823 95.3092 59.4817 94.6086 58.6176 94.6086Z" fill="#E5E5E5"/>
<path d="M118.458 97.3944C117.651 97.3944 116.862 97.1551 116.191 96.7068C115.52 96.2585 114.997 95.6214 114.688 94.8759C114.38 94.1304 114.299 93.31 114.456 92.5186C114.614 91.7272 115.002 91.0002 115.573 90.4297C116.143 89.8591 116.87 89.4705 117.662 89.3131C118.453 89.1557 119.274 89.2365 120.019 89.5453C120.765 89.8541 121.402 90.377 121.85 91.0479C122.298 91.7188 122.538 92.5076 122.538 93.3146C122.538 94.3966 122.108 95.4343 121.343 96.1995C120.578 96.9646 119.54 97.3944 118.458 97.3944Z" fill="#E5E5E5"/>
<path d="M100.684 49.2152C105.168 49.2152 108.803 45.5801 108.803 41.0961C108.803 36.612 105.168 32.977 100.684 32.977C96.1995 32.977 92.5645 36.612 92.5645 41.0961C92.5645 45.5801 96.1995 49.2152 100.684 49.2152Z" fill="#3F76FF"/>
<path d="M99.577 45.3217C99.4368 45.3217 99.2986 45.2891 99.1732 45.2264C99.0478 45.1636 98.9387 45.0726 98.8546 44.9604L96.6396 42.007C96.5684 41.9121 96.5167 41.8041 96.4872 41.6892C96.4578 41.5744 96.4513 41.4548 96.4681 41.3374C96.4848 41.22 96.5246 41.107 96.585 41.005C96.6454 40.9029 96.7254 40.8138 96.8202 40.7426C96.9151 40.6715 97.0231 40.6197 97.138 40.5903C97.2529 40.5608 97.3725 40.5543 97.4899 40.5711C97.6073 40.5879 97.7202 40.6276 97.8223 40.688C97.9243 40.7485 98.0134 40.8284 98.0846 40.9233L99.5338 42.8553L103.256 37.2725C103.321 37.1738 103.406 37.089 103.505 37.023C103.603 36.9569 103.714 36.911 103.83 36.8877C103.946 36.8644 104.066 36.8643 104.183 36.8873C104.299 36.9103 104.41 36.956 104.508 37.0218C104.607 37.0876 104.692 37.1722 104.758 37.2708C104.824 37.3694 104.87 37.48 104.893 37.5963C104.916 37.7126 104.916 37.8324 104.893 37.9487C104.87 38.0651 104.824 38.1758 104.759 38.2745L100.329 44.9195C100.248 45.0397 100.141 45.1389 100.014 45.2088C99.8879 45.2788 99.7466 45.3174 99.6022 45.3214C99.5938 45.3216 99.5854 45.3217 99.577 45.3217Z" fill="white"/>
<path d="M111.221 55.7437H90.5042C89.64 55.7437 88.9395 56.4443 88.9395 57.3085V59.2781C88.9395 60.1423 89.64 60.8429 90.5042 60.8429H111.221C112.085 60.8429 112.785 60.1423 112.785 59.2781V57.3085C112.785 56.4443 112.085 55.7437 111.221 55.7437Z" fill="#525252"/>
<path d="M123.332 65.9421H78.3948C77.5306 65.9421 76.8301 66.6426 76.8301 67.5068V69.4765C76.8301 70.3407 77.5306 71.0412 78.3948 71.0412H123.332C124.196 71.0412 124.897 70.3407 124.897 69.4765V67.5068C124.897 66.6426 124.196 65.9421 123.332 65.9421Z" fill="#525252"/>
<path d="M123.332 76.1404H78.3948C77.5306 76.1404 76.8301 76.8409 76.8301 77.7051V79.6748C76.8301 80.539 77.5306 81.2395 78.3948 81.2395H123.332C124.196 81.2395 124.897 80.539 124.897 79.6748V77.7051C124.897 76.8409 124.196 76.1404 123.332 76.1404Z" fill="#525252"/>
</svg>
