<svg width="114" height="110" viewBox="0 0 114 110" fill="none" xmlns="http://www.w3.org/2000/svg">
<path d="M62.9288 39.4853H38.3488C37.8107 39.4869 37.2793 39.3658 36.7951 39.1311C36.3109 38.8964 35.8865 38.5544 35.5544 38.131C35.2162 37.7036 34.98 37.2047 34.8637 36.6723C34.7475 36.1399 34.7542 35.5879 34.8835 35.0585C37.1489 25.5697 37.1488 15.681 34.8833 6.19224C34.7542 5.66282 34.7475 5.11091 34.8638 4.57851C34.98 4.04611 35.2162 3.54725 35.5543 3.11987C35.8864 2.69647 36.3108 2.35441 36.795 2.11973C37.2793 1.88505 37.8107 1.76392 38.3488 1.76558H62.9288C63.7774 1.76802 64.5977 2.07162 65.2434 2.6223C65.8891 3.17299 66.3184 3.935 66.4548 4.77263C68.0725 15.2793 68.0725 25.9716 66.4548 36.4782C66.3184 37.3159 65.8891 38.0779 65.2434 38.6286C64.5977 39.1793 63.7774 39.4829 62.9288 39.4853Z" fill="#E6E6E6"/>
<path d="M38.3501 3.61521C38.0916 3.61434 37.8364 3.67242 37.6038 3.78504C37.3712 3.89766 37.1674 4.06185 37.0078 4.26511C36.8435 4.47337 36.7288 4.71637 36.6725 4.97561C36.6162 5.23486 36.6198 5.50353 36.683 5.76118C39.0162 15.5334 39.0162 25.7177 36.6832 35.49C36.6199 35.7476 36.6163 36.0162 36.6725 36.2754C36.7288 36.5346 36.8434 36.7775 37.0077 36.9858C37.1673 37.1891 37.3712 37.3534 37.6038 37.4661C37.8364 37.5787 38.0916 37.6368 38.3501 37.636H62.93C63.3375 37.6361 63.7319 37.4916 64.0429 37.2281C64.3538 36.9647 64.5612 36.5994 64.628 36.1974C66.217 25.877 66.217 15.3742 64.628 5.05378C64.5612 4.65174 64.3538 4.28648 64.0429 4.02303C63.7319 3.75959 63.3375 3.61506 62.93 3.6152L38.3501 3.61521Z" fill="white"/>
<path d="M57.5643 12.5083H44.6658C44.1755 12.5078 43.7054 12.3128 43.3587 11.9661C43.012 11.6193 42.8169 11.1493 42.8164 10.6589V9.93621C42.8169 9.44588 43.012 8.97579 43.3587 8.62908C43.7054 8.28236 44.1755 8.08734 44.6658 8.08681H57.5643C58.0547 8.08734 58.5247 8.28236 58.8715 8.62908C59.2182 8.97579 59.4132 9.44588 59.4137 9.93621V10.6589C59.4132 11.1493 59.2182 11.6194 58.8715 11.9661C58.5247 12.3128 58.0547 12.5078 57.5643 12.5083Z" fill="#E6E6E6"/>
<path d="M57.5643 21.6403H44.6658C44.1755 21.6398 43.7054 21.4447 43.3587 21.098C43.012 20.7513 42.8169 20.2812 42.8164 19.7909V19.0682C42.8169 18.5778 43.012 18.1077 43.3587 17.761C43.7054 17.4143 44.1755 17.2193 44.6658 17.2188H57.5643C58.0547 17.2193 58.5247 17.4143 58.8715 17.761C59.2182 18.1077 59.4132 18.5778 59.4137 19.0682V19.7909C59.4132 20.2812 59.2182 20.7513 58.8715 21.098C58.5247 21.4447 58.0547 21.6398 57.5643 21.6403Z" fill="#E6E6E6"/>
<path d="M57.5643 30.7722H44.6658C44.1755 30.7717 43.7054 30.5767 43.3587 30.2299C43.012 29.8832 42.8169 29.4131 42.8164 28.9228V28.2001C42.8169 27.7098 43.012 27.2397 43.3587 26.893C43.7054 26.5462 44.1755 26.3512 44.6658 26.3507H57.5643C58.0547 26.3512 58.5247 26.5462 58.8715 26.893C59.2182 27.2397 59.4132 27.7098 59.4137 28.2001V28.9228C59.4132 29.4131 59.2182 29.8832 58.8715 30.2299C58.5247 30.5767 58.0547 30.7717 57.5643 30.7722Z" fill="#E6E6E6"/>
<path d="M109.163 62.9121H84.5832C84.0451 62.9137 83.5137 62.7926 83.0295 62.5579C82.5452 62.3232 82.1209 61.9812 81.7888 61.5578C81.4506 61.1304 81.2144 60.6315 81.0981 60.0991C80.9819 59.5666 80.9886 59.0147 81.1179 58.4853C83.3833 48.9965 83.3832 39.1077 81.1177 29.619C80.9886 29.0896 80.9819 28.5377 81.0981 28.0053C81.2144 27.4729 81.4506 26.974 81.7887 26.5467C82.1208 26.1233 82.5452 25.7812 83.0294 25.5465C83.5137 25.3118 84.0451 25.1907 84.5832 25.1924H109.163C110.012 25.1948 110.832 25.4984 111.478 26.0491C112.123 26.5998 112.553 27.3618 112.689 28.1994C114.307 38.706 114.307 49.3984 112.689 59.905C112.553 60.7426 112.123 61.5047 111.478 62.0553C110.832 62.606 110.012 62.9096 109.163 62.9121Z" fill="#E6E6E6"/>
<path d="M84.5844 27.0417C84.326 27.0408 84.0708 27.0989 83.8382 27.2115C83.6056 27.3242 83.4018 27.4883 83.2422 27.6916C83.0779 27.8999 82.9632 28.1429 82.9069 28.4021C82.8506 28.6614 82.8542 28.93 82.9174 29.1877C85.2506 38.9599 85.2506 49.1442 82.9175 58.9165C82.8543 59.1741 82.8507 59.4427 82.9069 59.7019C82.9632 59.9611 83.0778 60.204 83.2421 60.4123C83.4016 60.6156 83.6056 60.7799 83.8382 60.8926C84.0708 61.0052 84.326 61.0633 84.5844 61.0625H109.164C109.572 61.0626 109.966 60.9181 110.277 60.6546C110.588 60.3912 110.796 60.0259 110.862 59.6239C112.451 49.3035 112.451 38.8007 110.862 28.4803C110.796 28.0782 110.588 27.713 110.277 27.4495C109.966 27.1861 109.572 27.0416 109.164 27.0417L84.5844 27.0417Z" fill="white"/>
<path d="M60.1572 89.5753H35.5772C35.0158 89.577 34.4614 89.4506 33.9562 89.2057C33.451 88.9609 33.0083 88.604 32.6618 88.1623C32.3091 87.7167 32.0628 87.1965 31.9416 86.6413C31.8203 86.086 31.8273 85.5105 31.9621 84.9584C34.2218 75.4933 34.2217 65.6292 31.9619 56.1641C31.8272 55.6121 31.8203 55.0365 31.9415 54.4814C32.0628 53.9262 32.3091 53.406 32.6617 52.9604C33.0082 52.5186 33.4509 52.1618 33.9562 51.9169C34.4614 51.6721 35.0158 51.5457 35.5772 51.5474H60.1572C61.0426 51.55 61.8983 51.8669 62.5719 52.4415C63.2455 53.0161 63.6933 53.8111 63.8355 54.6851C65.4556 65.2072 65.4556 75.9154 63.8355 86.4376C63.6933 87.3115 63.2455 88.1066 62.5719 88.6812C61.8983 89.2558 61.0426 89.5727 60.1572 89.5753Z" fill="#F2F2F2"/>
<path d="M103.803 40.5585H90.9041C90.4138 40.558 89.9437 40.363 89.597 40.0163C89.2502 39.6696 89.0552 39.1995 89.0547 38.7091V37.9864C89.0552 37.4961 89.2502 37.026 89.597 36.6793C89.9437 36.3326 90.4138 36.1376 90.9041 36.137H103.803C104.293 36.1376 104.763 36.3326 105.11 36.6793C105.456 37.026 105.651 37.4961 105.652 37.9864V38.7092C105.651 39.1995 105.456 39.6696 105.11 40.0163C104.763 40.363 104.293 40.558 103.803 40.5585Z" fill="#E6E6E6"/>
<path d="M103.803 49.6904H90.9041C90.4138 49.6899 89.9437 49.4948 89.597 49.1481C89.2502 48.8014 89.0552 48.3313 89.0547 47.841V47.1183C89.0552 46.6279 89.2502 46.1578 89.597 45.8111C89.9437 45.4644 90.4138 45.2694 90.9041 45.2689H103.803C104.293 45.2694 104.763 45.4644 105.11 45.8111C105.456 46.1578 105.651 46.6279 105.652 47.1183V47.841C105.651 48.3313 105.456 48.8014 105.11 49.1481C104.763 49.4948 104.293 49.6899 103.803 49.6904Z" fill="#E6E6E6"/>
<path d="M47.9334 77.5237C51.8489 77.5237 55.023 74.3496 55.023 70.4341C55.023 66.5186 51.8489 63.3444 47.9334 63.3444C44.0179 63.3444 40.8438 66.5186 40.8438 70.4341C40.8438 74.3496 44.0179 77.5237 47.9334 77.5237Z" fill="white"/>
<path d="M51.3233 69.5093H48.8574V67.0433C48.8574 66.7981 48.7599 66.5629 48.5865 66.3895C48.4131 66.216 48.1779 66.1186 47.9326 66.1186C47.6874 66.1186 47.4522 66.216 47.2787 66.3895C47.1053 66.5629 47.0079 66.7981 47.0079 67.0433V69.5093H44.5419C44.2967 69.5093 44.0615 69.6067 43.888 69.7802C43.7146 69.9536 43.6172 70.1888 43.6172 70.434C43.6172 70.6793 43.7146 70.9145 43.888 71.0879C44.0615 71.2613 44.2967 71.3588 44.5419 71.3588H47.0079V73.8247C47.0079 74.07 47.1053 74.3052 47.2787 74.4786C47.4522 74.652 47.6874 74.7495 47.9326 74.7495C48.1779 74.7495 48.4131 74.652 48.5865 74.4786C48.7599 74.3052 48.8574 74.07 48.8574 73.8247V71.3588H51.3233C51.5686 71.3588 51.8038 71.2613 51.9772 71.0879C52.1506 70.9145 52.2481 70.6793 52.2481 70.434C52.2481 70.1888 52.1506 69.9536 51.9772 69.7802C51.8038 69.6067 51.5686 69.5093 51.3233 69.5093Z" fill="#E6E6E6"/>
<path d="M56.8686 5.24017H43.9223C43.5545 5.23975 43.2019 5.09348 42.9419 4.83344C42.6818 4.5734 42.5356 4.22082 42.5352 3.85307V1.3871C42.5356 1.01935 42.6818 0.666773 42.9419 0.406731C43.2019 0.146688 43.5545 0.000414454 43.9223 0H56.8686C57.2363 0.000414454 57.5889 0.146688 57.8489 0.406731C58.109 0.666773 58.2553 1.01935 58.2557 1.3871V3.85307C58.2553 4.22082 58.109 4.5734 57.8489 4.83344C57.5889 5.09348 57.2363 5.23975 56.8686 5.24017Z" fill="#CCCCCC"/>
<path d="M103.728 28.9751H90.7816C90.4139 28.9746 90.0613 28.8284 89.8013 28.5683C89.5412 28.3083 89.3949 27.9557 89.3945 27.588V25.122C89.3949 24.7542 89.5412 24.4017 89.8013 24.1416C90.0613 23.8816 90.4139 23.7353 90.7816 23.7349H103.728C104.096 23.7353 104.448 23.8816 104.708 24.1416C104.968 24.4017 105.115 24.7542 105.115 25.122V27.588C105.115 27.9557 104.968 28.3083 104.708 28.5683C104.448 28.8284 104.096 28.9746 103.728 28.9751Z" fill="#CCCCCC"/>
<path d="M24.8948 109.73L2.19617 100.299C1.69862 100.094 1.25438 99.7781 0.897242 99.3756C0.540106 98.9731 0.279487 98.4944 0.135217 97.976C-0.0131037 97.4516 -0.0398135 96.9002 0.057112 96.3639C0.154037 95.8276 0.372044 95.3205 0.694542 94.8812C6.42723 86.9879 10.2213 77.8559 11.7699 68.2242C11.8538 67.6857 12.0593 67.1735 12.371 66.7265C12.6826 66.2794 13.0921 65.9094 13.5684 65.6444C14.0375 65.3809 14.5606 65.2278 15.0979 65.1969C15.6351 65.166 16.1723 65.258 16.6686 65.466L39.3673 74.8969C40.1501 75.2248 40.791 75.8199 41.1761 76.5761C41.5611 77.3324 41.6651 78.2008 41.4697 79.0267C38.9324 89.3499 34.8299 99.2239 29.3048 108.306C28.8574 109.027 28.1686 109.566 27.361 109.827C26.5534 110.087 25.6795 110.053 24.8948 109.73Z" fill="#E6E6E6"/>
<path d="M15.9601 67.174C15.7218 67.074 15.4638 67.0297 15.2058 67.0445C14.9478 67.0592 14.6966 67.1327 14.4712 67.2591C14.2395 67.3884 14.0404 67.5688 13.889 67.7866C13.7375 68.0044 13.6378 68.2539 13.5973 68.5161C12.0024 78.4356 8.09491 87.8404 2.19092 95.9696C2.03369 96.1832 1.92728 96.4299 1.87977 96.6908C1.83225 96.9518 1.8449 97.2201 1.91674 97.4755C1.98607 97.7244 2.11136 97.9545 2.28293 98.1477C2.45449 98.341 2.66788 98.4926 2.90687 98.5909L25.6056 108.022C25.9819 108.178 26.4015 108.196 26.7897 108.072C27.178 107.948 27.5096 107.691 27.7256 107.345C33.1527 98.424 37.1825 88.7251 39.6749 78.5849C39.7674 78.188 39.7161 77.7711 39.53 77.4085C39.3439 77.0459 39.0352 76.7611 38.6588 76.6049L15.9601 67.174Z" fill="white"/>
<path d="M28.0466 88.1677L16.1353 83.2188C15.6827 83.0302 15.3234 82.6697 15.1363 82.2165C14.9491 81.7633 14.9494 81.2543 15.137 80.8013L15.4143 80.1339C15.6029 79.6813 15.9634 79.3221 16.4166 79.1349C16.8698 78.9478 17.3787 78.948 17.8318 79.1357L29.7431 84.0846C30.1957 84.2733 30.555 84.6337 30.7421 85.0869C30.9293 85.5401 30.929 86.0491 30.7413 86.5021L30.4641 87.1695C30.2754 87.6221 29.915 87.9814 29.4618 88.1685C29.0086 88.3556 28.4996 88.3554 28.0466 88.1677Z" fill="#3F76FF"/>
<path d="M24.5427 96.6009L12.6314 91.652C12.1788 91.4633 11.8195 91.1029 11.6324 90.6497C11.4452 90.1965 11.4455 89.6875 11.6331 89.2345L11.9104 88.5671C12.099 88.1145 12.4595 87.7552 12.9127 87.5681C13.3659 87.3809 13.8748 87.3812 14.3279 87.5688L26.2392 92.5178C26.6918 92.7064 27.0511 93.0669 27.2382 93.5201C27.4254 93.9733 27.4251 94.4822 27.2375 94.9352L26.9602 95.6026C26.7715 96.0552 26.4111 96.4145 25.9579 96.6017C25.5047 96.7888 24.9957 96.7886 24.5427 96.6009Z" fill="#3F76FF"/>
<path d="M32.8189 76.3158C32.6406 76.3157 32.464 76.2811 32.2989 76.214L20.2964 71.3613C19.9556 71.2231 19.6836 70.9554 19.54 70.6168C19.3964 70.2783 19.3929 69.8966 19.5303 69.5555L20.4547 67.2693C20.5926 66.9282 20.8603 66.656 21.199 66.5123C21.5377 66.3687 21.9195 66.3654 22.2606 66.5033L34.263 71.3559C34.6038 71.4942 34.8758 71.7619 35.0194 72.1004C35.1631 72.439 35.1665 72.8207 35.0291 73.1618L34.1047 75.448C34.0009 75.704 33.8231 75.9233 33.5941 76.0779C33.3651 76.2325 33.0952 76.3153 32.8189 76.3158Z" fill="#CCCCCC"/>
</svg>
