<svg width="97" height="110" viewBox="0 0 97 110" fill="none" xmlns="http://www.w3.org/2000/svg">
<path d="M86.748 110H9.8374C7.22926 109.997 4.72879 108.96 2.88456 107.115C1.04033 105.271 0.00294615 102.771 0 100.163V9.8374C0.00294615 7.22926 1.04033 4.72879 2.88456 2.88456C4.72879 1.04033 7.22926 0.00294615 9.8374 0H81.3901L96.5854 12.1116V100.163C96.5824 102.771 95.545 105.271 93.7008 107.115C91.8566 108.96 89.3561 109.997 86.748 110Z" fill="#E5E5E5"/>
<path d="M9.83745 2.83203C7.98014 2.83412 6.1995 3.57287 4.88618 4.88618C3.57287 6.1995 2.83412 7.98014 2.83203 9.83745V100.163C2.83412 102.02 3.57287 103.801 4.88618 105.114C6.1995 106.427 7.98014 107.166 9.83745 107.168H86.748C88.6053 107.166 90.386 106.427 91.6993 105.114C93.0126 103.801 93.7514 102.02 93.7534 100.163V13.476L80.3996 2.83203H9.83745Z" fill="white"/>
<path d="M71.7873 29.0962H36.771C36.5559 29.0962 36.3428 29.0538 36.1441 28.9715C35.9453 28.8892 35.7647 28.7685 35.6126 28.6164C35.4605 28.4643 35.3398 28.2837 35.2575 28.0849C35.1752 27.8862 35.1328 27.6731 35.1328 27.458C35.1328 27.2429 35.1752 27.0299 35.2575 26.8311C35.3398 26.6324 35.4605 26.4518 35.6126 26.2996C35.7647 26.1475 35.9453 26.0268 36.1441 25.9445C36.3428 25.8622 36.5559 25.8198 36.771 25.8198H71.7873C72.0024 25.8198 72.2155 25.8622 72.4142 25.9445C72.613 26.0268 72.7936 26.1475 72.9457 26.2996C73.0978 26.4518 73.2185 26.6324 73.3008 26.8311C73.3831 27.0299 73.4255 27.2429 73.4255 27.458C73.4255 27.6731 73.3831 27.8862 73.3008 28.0849C73.2185 28.2837 73.0978 28.4643 72.9457 28.6164C72.7936 28.7685 72.613 28.8892 72.4142 28.9715C72.2155 29.0538 72.0024 29.0962 71.7873 29.0962Z" fill="#D4D4D4"/>
<path d="M78.5448 34.625H36.771C36.3365 34.625 35.9198 34.4524 35.6126 34.1452C35.3054 33.838 35.1328 33.4213 35.1328 32.9868C35.1328 32.5524 35.3054 32.1357 35.6126 31.8284C35.9198 31.5212 36.3365 31.3486 36.771 31.3486H78.5448C78.9793 31.3486 79.396 31.5212 79.7032 31.8284C80.0104 32.1357 80.183 32.5524 80.183 32.9868C80.183 33.4213 80.0104 33.838 79.7032 34.1452C79.396 34.4524 78.9793 34.625 78.5448 34.625Z" fill="#D4D4D4"/>
<path d="M71.7873 53.8738H36.771C36.3365 53.8738 35.9198 53.7012 35.6126 53.394C35.3054 53.0868 35.1328 52.6701 35.1328 52.2356C35.1328 51.8011 35.3054 51.3844 35.6126 51.0772C35.9198 50.77 36.3365 50.5974 36.771 50.5974H71.7873C72.2218 50.5974 72.6385 50.77 72.9457 51.0772C73.2529 51.3844 73.4255 51.8011 73.4255 52.2356C73.4255 52.6701 73.2529 53.0868 72.9457 53.394C72.6385 53.7012 72.2218 53.8738 71.7873 53.8738Z" fill="#D4D4D4"/>
<path d="M78.5448 59.4026H36.771C36.3365 59.4026 35.9198 59.23 35.6126 58.9228C35.3054 58.6156 35.1328 58.1989 35.1328 57.7644C35.1328 57.3299 35.3054 56.9133 35.6126 56.606C35.9198 56.2988 36.3365 56.1262 36.771 56.1262H78.5448C78.9793 56.1262 79.396 56.2988 79.7032 56.606C80.0104 56.9133 80.183 57.3299 80.183 57.7644C80.183 58.1989 80.0104 58.6156 79.7032 58.9228C79.396 59.23 78.9793 59.4026 78.5448 59.4026Z" fill="#D4D4D4"/>
<path d="M71.7873 78.6514H36.771C36.3365 78.6514 35.9198 78.4788 35.6126 78.1716C35.3054 77.8643 35.1328 77.4477 35.1328 77.0132C35.1328 76.5787 35.3054 76.162 35.6126 75.8548C35.9198 75.5476 36.3365 75.375 36.771 75.375H71.7873C72.2218 75.375 72.6385 75.5476 72.9457 75.8548C73.2529 76.162 73.4255 76.5787 73.4255 77.0132C73.4255 77.4477 73.2529 77.8643 72.9457 78.1716C72.6385 78.4788 72.2218 78.6514 71.7873 78.6514Z" fill="#D4D4D4"/>
<path d="M78.5448 84.1803H36.771C36.3365 84.1803 35.9198 84.0077 35.6126 83.7005C35.3054 83.3933 35.1328 82.9766 35.1328 82.5421C35.1328 82.1076 35.3054 81.691 35.6126 81.3837C35.9198 81.0765 36.3365 80.9039 36.771 80.9039H78.5448C78.9793 80.9039 79.396 81.0765 79.7032 81.3837C80.0104 81.691 80.183 82.1076 80.183 82.5421C80.183 82.9766 80.0104 83.3933 79.7032 83.7005C79.396 84.0077 78.9793 84.1803 78.5448 84.1803Z" fill="#D4D4D4"/>
<path d="M22.1846 36.0124C25.3824 36.0124 27.9747 33.4201 27.9747 30.2224C27.9747 27.0246 25.3824 24.4323 22.1846 24.4323C18.9868 24.4323 16.3945 27.0246 16.3945 30.2224C16.3945 33.4201 18.9868 36.0124 22.1846 36.0124Z" fill="#3F76FF"/>
<path d="M21.6211 32.4311C21.4909 32.4313 21.3641 32.3892 21.2598 32.3111L21.2534 32.3062L19.8926 31.2653C19.7655 31.1676 19.6823 31.0235 19.6614 30.8646C19.6405 30.7057 19.6835 30.545 19.781 30.4178C19.8786 30.2906 20.0226 30.2073 20.1815 30.1862C20.3404 30.1652 20.5012 30.208 20.6285 30.3055L21.5098 30.9814L23.5926 28.2642C23.6409 28.2012 23.7011 28.1483 23.7698 28.1086C23.8386 28.0689 23.9145 28.0431 23.9932 28.0327C24.0718 28.0223 24.1518 28.0275 24.2285 28.048C24.3052 28.0685 24.3771 28.1039 24.4401 28.1522L24.4273 28.1703L24.4406 28.1524C24.5677 28.25 24.6508 28.3941 24.6718 28.553C24.6928 28.712 24.6498 28.8727 24.5524 29L22.1026 32.1946C22.0459 32.2682 21.9731 32.3277 21.8897 32.3686C21.8063 32.4095 21.7145 32.4307 21.6216 32.4304L21.6211 32.4311Z" fill="white"/>
<path d="M22.7823 60.79C25.9801 60.79 28.5724 58.1977 28.5724 54.9999C28.5724 51.8022 25.9801 49.2098 22.7823 49.2098C19.5845 49.2098 16.9922 51.8022 16.9922 54.9999C16.9922 58.1977 19.5845 60.79 22.7823 60.79Z" fill="#D4D4D4"/>
<path d="M22.1846 85.5677C25.3824 85.5677 27.9747 82.9754 27.9747 79.7776C27.9747 76.5799 25.3824 73.9875 22.1846 73.9875C18.9868 73.9875 16.3945 76.5799 16.3945 79.7776C16.3945 82.9754 18.9868 85.5677 22.1846 85.5677Z" fill="#D4D4D4"/>
<path d="M96.2887 12.5014H84.3857C83.5168 12.5014 82.6834 12.1562 82.069 11.5418C81.4546 10.9273 81.1094 10.094 81.1094 9.22501V0.433659C81.1094 0.39517 81.1202 0.357457 81.1407 0.32485C81.1611 0.292244 81.1904 0.266061 81.225 0.249305C81.2597 0.232549 81.2983 0.225898 81.3366 0.230114C81.3748 0.234331 81.4111 0.249245 81.4413 0.273145L96.4158 12.1361C96.4492 12.1625 96.4735 12.1986 96.4853 12.2394C96.4972 12.2803 96.4961 12.3238 96.4821 12.3639C96.4681 12.4041 96.442 12.4389 96.4073 12.4635C96.3727 12.4882 96.3312 12.5014 96.2887 12.5014Z" fill="#E5E5E5"/>
</svg>
