<svg width="113" height="100" viewBox="0 0 113 100" fill="none" xmlns="http://www.w3.org/2000/svg">
<path d="M85.1227 61.9564C88.0593 72.6045 81.8079 83.6172 71.1597 86.5538L41.6842 94.6828C31.036 97.6194 20.0233 91.368 17.0867 80.7198L5.31722 38.0436C2.3806 27.3955 8.63205 16.3828 19.2802 13.4462L48.7558 5.31722C59.404 2.3806 70.4166 8.63205 73.3532 19.2802L85.1227 61.9564Z" fill="white"/>
<path d="M88.8448 75.4525C89.7258 78.647 87.8503 81.9508 84.6559 82.8318L28.188 98.4048C24.9935 99.2858 21.6897 97.4104 20.8088 94.2159L1.59517 24.5475C0.714181 21.353 2.58962 18.0492 5.78407 17.1682L62.252 1.59516C65.4464 0.714179 68.7502 2.58962 69.6312 5.78407L88.8448 75.4525ZM21.678 92.6846C22.559 95.8791 25.8628 97.7545 29.0572 96.8735L83.1246 81.9625C86.3191 81.0815 88.1945 77.7777 87.3135 74.5833L68.7619 7.31533C67.881 4.12088 64.5772 2.24545 61.3827 3.12644L7.31534 18.0375C4.12089 18.9185 2.24546 22.2222 3.12645 25.4167L21.678 92.6846Z" fill="#F1F1F1"/>
<path d="M53.2311 36.3927L36.1766 41.0961C35.936 41.1621 35.679 41.1301 35.4621 41.0069C35.2451 40.8837 35.0858 40.6795 35.0192 40.4391L30.3158 23.3846C30.2498 23.144 30.2819 22.887 30.405 22.6701C30.5282 22.4531 30.7324 22.2939 30.9728 22.2273L48.0273 17.5239C48.2679 17.4578 48.5249 17.4899 48.7419 17.613C48.9588 17.7362 49.1181 17.9404 49.1847 18.1808L53.8881 35.2353C53.9541 35.4759 53.9221 35.7329 53.7989 35.9499C53.6757 36.1668 53.4715 36.3261 53.2311 36.3927ZM31.0729 22.5901C30.9286 22.6301 30.8061 22.7256 30.7322 22.8558C30.6583 22.986 30.6391 23.1402 30.6787 23.2845L35.3821 40.339C35.422 40.4833 35.5176 40.6058 35.6478 40.6797C35.778 40.7536 35.9321 40.7729 36.0765 40.7332L53.131 36.0298C53.2753 35.9899 53.3978 35.8943 53.4717 35.7641C53.5456 35.634 53.5648 35.4798 53.5252 35.3354L48.8218 18.2809C48.7818 18.1367 48.6863 18.0141 48.5561 17.9402C48.4259 17.8663 48.2717 17.8471 48.1274 17.8867L31.0729 22.5901Z" fill="#E5E5E5"/>
<path d="M48.906 39.8302L31.8515 44.5336C31.6349 44.593 31.4037 44.5642 31.2084 44.4533C31.0131 44.3425 30.8698 44.1587 30.8098 43.9423L26.1064 26.8878C26.047 26.6713 26.0758 26.44 26.1867 26.2447C26.2975 26.0495 26.4813 25.9061 26.6977 25.8462L43.7522 21.1428C43.9687 21.0833 44.2 21.1122 44.3953 21.2231C44.5905 21.3339 44.7339 21.5177 44.7938 21.7341L49.4972 38.7886C49.5567 39.0051 49.5278 39.2364 49.417 39.4317C49.3061 39.6269 49.1224 39.7702 48.906 39.8302Z" fill="#3F76FF"/>
<path d="M68.6648 42.1584L21.0723 55.2838L21.5795 57.1229L69.172 43.9976L68.6648 42.1584Z" fill="#F1F1F1"/>
<path d="M69.988 46.9537L22.3955 60.0791L22.9027 61.9182L70.4952 48.7929L69.988 46.9537Z" fill="#F1F1F1"/>
<path d="M71.3083 51.7488L23.7158 64.8742L24.223 66.7133L71.8155 53.588L71.3083 51.7488Z" fill="#F1F1F1"/>
<path d="M73.6325 60.1884L26.04 73.3137L26.5472 75.1529L74.1397 62.0275L73.6325 60.1884Z" fill="#F1F1F1"/>
<path d="M74.9538 64.9837L27.3613 78.109L27.8685 79.9482L75.461 66.8228L74.9538 64.9837Z" fill="#F1F1F1"/>
<path d="M76.2819 69.7788L28.6895 82.9042L29.1967 84.7433L76.7891 71.618L76.2819 69.7788Z" fill="#F1F1F1"/>
<path d="M112.22 95.7287C112.22 97.9378 110.43 99.7287 108.22 99.7287H45.6445C43.4354 99.7287 41.6445 97.9378 41.6445 95.7287V19.4594C41.6445 17.2502 43.4354 15.4594 45.6445 15.4594H108.22C110.43 15.4594 112.22 17.2502 112.22 19.4594V95.7287Z" fill="white"/>
<path d="M112.22 93.7287C112.22 97.0424 109.534 99.7287 106.22 99.7287H47.6445C44.3308 99.7287 41.6445 97.0424 41.6445 93.7287V21.4594C41.6445 18.1457 44.3308 15.4594 47.6445 15.4594H106.22C109.534 15.4594 112.22 18.1457 112.22 21.4594V93.7287ZM42.8896 92.4836C42.8896 95.7973 45.5759 98.4836 48.8896 98.4836H104.975C108.289 98.4836 110.975 95.7973 110.975 92.4836V22.7044C110.975 19.3907 108.289 16.7044 104.975 16.7044H48.8896C45.5759 16.7044 42.8896 19.3907 42.8896 22.7044V92.4836Z" fill="#E5E5E5"/>
<path d="M99.3697 51.6857H59.0186V53.5935H99.3697V51.6857Z" fill="#3F76FF"/>
<path d="M99.3697 56.6459H59.0186V58.5537H99.3697V56.6459Z" fill="#3F76FF"/>
<path d="M99.3697 61.6061H59.0186V63.5139H99.3697V61.6061Z" fill="#3F76FF"/>
<path d="M55.7373 54.1638C56.4249 54.1638 56.9823 53.6064 56.9823 52.9187C56.9823 52.2311 56.4249 51.6737 55.7373 51.6737C55.0496 51.6737 54.4922 52.2311 54.4922 52.9187C54.4922 53.6064 55.0496 54.1638 55.7373 54.1638Z" fill="#3F76FF"/>
<path d="M99.3697 30.3119H59.0186V32.2197H99.3697V30.3119Z" fill="#E5E5E5"/>
<path d="M99.3697 35.272H59.0186V37.1798H99.3697V35.272Z" fill="#E5E5E5"/>
<path d="M99.3697 40.2325H59.0186V42.1403H99.3697V40.2325Z" fill="#E5E5E5"/>
<path d="M55.7373 32.5828C56.4249 32.5828 56.9823 32.0254 56.9823 31.3377C56.9823 30.6501 56.4249 30.0927 55.7373 30.0927C55.0496 30.0927 54.4922 30.6501 54.4922 31.3377C54.4922 32.0254 55.0496 32.5828 55.7373 32.5828Z" fill="#E5E5E5"/>
<path d="M99.3697 73.267H59.0186V75.1748H99.3697V73.267Z" fill="#E5E5E5"/>
<path d="M99.3697 78.227H59.0186V80.1348H99.3697V78.227Z" fill="#E5E5E5"/>
<path d="M99.3697 83.1874H59.0186V85.0952H99.3697V83.1874Z" fill="#E5E5E5"/>
<path d="M55.7373 75.538C56.4249 75.538 56.9823 74.9805 56.9823 74.2929C56.9823 73.6053 56.4249 73.0478 55.7373 73.0478C55.0496 73.0478 54.4922 73.6053 54.4922 74.2929C54.4922 74.9805 55.0496 75.538 55.7373 75.538Z" fill="#E5E5E5"/>
</svg>
