<svg width="176" height="98" viewBox="0 0 176 98" fill="none" xmlns="http://www.w3.org/2000/svg">
<path d="M170.221 0H5.16568C3.79611 0.00149754 2.48308 0.546219 1.51465 1.51465C0.546223 2.48308 0.00149754 3.79612 0 5.16568V92.2443C0.00149754 93.6139 0.546223 94.9269 1.51465 95.8953C2.48308 96.8638 3.79611 97.4085 5.16568 97.41H170.221C171.591 97.4085 172.904 96.8638 173.872 95.8953C174.841 94.9269 175.386 93.6139 175.387 92.2443V5.16568C175.386 3.79612 174.841 2.48308 173.872 1.51465C172.904 0.546219 171.591 0.00149754 170.221 0ZM174.895 92.2443C174.894 93.4835 174.401 94.6716 173.525 95.5479C172.649 96.4241 171.461 96.9169 170.221 96.918H5.16568C3.92648 96.9169 2.73835 96.4241 1.86211 95.5479C0.985858 94.6716 0.493091 93.4835 0.491969 92.2443V5.16568C0.493091 3.92648 0.985858 2.73835 1.86211 1.86211C2.73835 0.985859 3.92648 0.493091 5.16568 0.49197H170.221C171.461 0.493091 172.649 0.985859 173.525 1.86211C174.401 2.73835 174.894 3.92648 174.895 5.16568V92.2443Z" fill="#E5E5E5"/>
<path d="M162.106 14.1121H13.285C13.2198 14.1121 13.1572 14.0861 13.1111 14.04C13.065 13.9939 13.0391 13.9313 13.0391 13.8661C13.0391 13.8008 13.065 13.7383 13.1111 13.6921C13.1572 13.646 13.2198 13.6201 13.285 13.6201H162.106C162.171 13.6201 162.234 13.646 162.28 13.6921C162.326 13.7383 162.352 13.8008 162.352 13.8661C162.352 13.9313 162.326 13.9939 162.28 14.04C162.234 14.0861 162.171 14.1121 162.106 14.1121Z" fill="#E5E5E5"/>
<path d="M55.3534 86.8326C55.2882 86.8326 55.2256 86.8067 55.1795 86.7606C55.1333 86.7145 55.1074 86.6519 55.1074 86.5867V5.65765C55.1074 5.59241 55.1333 5.52985 55.1795 5.48371C55.2256 5.43758 55.2882 5.41167 55.3534 5.41167C55.4186 5.41167 55.4812 5.43758 55.5273 5.48371C55.5735 5.52985 55.5994 5.59241 55.5994 5.65765V86.5867C55.5994 86.6519 55.5735 86.7145 55.5273 86.7606C55.4812 86.8067 55.4186 86.8326 55.3534 86.8326Z" fill="#E5E5E5"/>
<path d="M92.4882 86.8326C92.4229 86.8326 92.3604 86.8067 92.3142 86.7606C92.2681 86.7145 92.2422 86.6519 92.2422 86.5867V5.65765C92.2422 5.59241 92.2681 5.52985 92.3142 5.48371C92.3604 5.43758 92.4229 5.41167 92.4882 5.41167C92.5534 5.41167 92.616 5.43758 92.6621 5.48371C92.7082 5.52985 92.7342 5.59241 92.7342 5.65765V86.5867C92.7342 86.6519 92.7082 86.7145 92.6621 86.7606C92.616 86.8067 92.5534 86.8326 92.4882 86.8326Z" fill="#E5E5E5"/>
<path d="M129.636 86.8326C129.57 86.8326 129.508 86.8067 129.462 86.7606C129.416 86.7145 129.39 86.6519 129.39 86.5867V5.65765C129.39 5.59241 129.416 5.52985 129.462 5.48371C129.508 5.43758 129.57 5.41167 129.636 5.41167C129.701 5.41167 129.763 5.43758 129.81 5.48371C129.856 5.52985 129.882 5.59241 129.882 5.65765V86.5867C129.882 86.6519 129.856 86.7145 129.81 86.7606C129.763 86.8067 129.701 86.8326 129.636 86.8326Z" fill="#E5E5E5"/>
<path d="M31.4653 39.5021H22.477C22.1836 39.5017 21.9022 39.385 21.6947 39.1775C21.4872 38.97 21.3704 38.6886 21.3701 38.3951V27.7884C21.3704 27.4949 21.4872 27.2135 21.6947 27.006C21.9022 26.7985 22.1836 26.6818 22.477 26.6814H31.4653C31.7588 26.6818 32.0402 26.7985 32.2477 27.006C32.4552 27.2135 32.5719 27.4949 32.5723 27.7884V38.3951C32.5719 38.6886 32.4552 38.97 32.2477 39.1775C32.0402 39.385 31.7588 39.5017 31.4653 39.5021Z" fill="#A3A3A3"/>
<path d="M44.2671 69.7582H35.2788C34.9853 69.7579 34.704 69.6412 34.4964 69.4336C34.2889 69.2261 34.1722 68.9448 34.1719 68.6513V58.0445C34.1722 57.751 34.2889 57.4697 34.4964 57.2621C34.704 57.0546 34.9853 56.9379 35.2788 56.9376H44.2671C44.5606 56.9379 44.8419 57.0546 45.0494 57.2621C45.257 57.4697 45.3737 57.751 45.374 58.0445V68.6513C45.3737 68.9448 45.257 69.2261 45.0494 69.4336C44.8419 69.6412 44.5606 69.7579 44.2671 69.7582Z" fill="#A3A3A3"/>
<path d="M73.2807 45.8976H64.2925C63.999 45.8973 63.7176 45.7806 63.5101 45.5731C63.3026 45.3655 63.1859 45.0842 63.1855 44.7907V34.1839C63.1859 33.8905 63.3026 33.6091 63.5101 33.4016C63.7176 33.1941 63.999 33.0773 64.2925 33.077H73.2807C73.5742 33.0773 73.8556 33.1941 74.0631 33.4016C74.2706 33.6091 74.3873 33.8905 74.3877 34.1839V44.7907C74.3873 45.0842 74.2706 45.3656 74.0631 45.5731C73.8556 45.7806 73.5742 45.8973 73.2807 45.8976Z" fill="#A3A3A3"/>
<path d="M110.927 34.3364H101.939C101.645 34.336 101.364 34.2193 101.157 34.0118C100.949 33.8043 100.832 33.5229 100.832 33.2294V22.6227C100.832 22.3292 100.949 22.0478 101.157 21.8403C101.364 21.6328 101.645 21.5161 101.939 21.5157H110.927C111.221 21.5161 111.502 21.6328 111.71 21.8403C111.917 22.0478 112.034 22.3292 112.034 22.6227V33.2294C112.034 33.5229 111.917 33.8043 111.71 34.0118C111.502 34.2193 111.221 34.336 110.927 34.3364Z" fill="#A3A3A3"/>
<path d="M145.602 34.3364H136.614C136.32 34.336 136.039 34.2193 135.831 34.0118C135.624 33.8043 135.507 33.5229 135.507 33.2294V22.6227C135.507 22.3292 135.624 22.0478 135.831 21.8403C136.039 21.6328 136.32 21.5161 136.614 21.5157H145.602C145.896 21.5161 146.177 21.6328 146.384 21.8403C146.592 22.0478 146.709 22.3292 146.709 22.6227V33.2294C146.709 33.5229 146.592 33.8043 146.384 34.0118C146.177 34.2193 145.896 34.336 145.602 34.3364Z" fill="#A3A3A3"/>
<path d="M161.593 37.2882H152.605C152.312 37.2879 152.03 37.1712 151.823 36.9636C151.615 36.7561 151.498 36.4748 151.498 36.1813V25.5745C151.498 25.281 151.615 24.9997 151.823 24.7922C152.03 24.5846 152.312 24.4679 152.605 24.4676H161.593C161.887 24.4679 162.168 24.5846 162.376 24.7922C162.583 24.9997 162.7 25.281 162.7 25.5745V36.1813C162.7 36.4748 162.583 36.7561 162.376 36.9636C162.168 37.1712 161.887 37.2879 161.593 37.2882Z" fill="#E5E5E5"/>
<path d="M154.456 56.229H145.467C145.174 56.2287 144.892 56.1119 144.685 55.9044C144.477 55.6969 144.361 55.4155 144.36 55.1221V44.5153C144.361 44.2218 144.477 43.9404 144.685 43.7329C144.892 43.5254 145.174 43.4087 145.467 43.4084H154.456C154.749 43.4087 155.03 43.5254 155.238 43.7329C155.445 43.9404 155.562 44.2218 155.562 44.5153V55.1221C155.562 55.4155 155.445 55.6969 155.238 55.9044C155.03 56.1119 154.749 56.2287 154.456 56.229Z" fill="#E5E5E5"/>
<path d="M123.967 52.2933H114.979C114.686 52.293 114.404 52.1762 114.197 51.9687C113.989 51.7612 113.872 51.4798 113.872 51.1864V40.5796C113.872 40.2861 113.989 40.0047 114.197 39.7972C114.404 39.5897 114.686 39.473 114.979 39.4727H123.967C124.261 39.473 124.542 39.5897 124.75 39.7972C124.957 40.0047 125.074 40.2861 125.074 40.5796V51.1864C125.074 51.4798 124.957 51.7612 124.75 51.9687C124.542 52.1762 124.261 52.293 123.967 52.2933Z" fill="#F5F5F5"/>
<path d="M106.501 56.229H97.5132C97.2197 56.2287 96.9383 56.1119 96.7308 55.9044C96.5233 55.6969 96.4066 55.4155 96.4062 55.1221V44.5153C96.4066 44.2218 96.5233 43.9404 96.7308 43.7329C96.9383 43.5254 97.2197 43.4087 97.5132 43.4084H106.501C106.795 43.4087 107.076 43.5254 107.284 43.7329C107.491 43.9404 107.608 44.2218 107.608 44.5153V55.1221C107.608 55.4155 107.491 55.6969 107.284 55.9044C107.076 56.1119 106.795 56.2287 106.501 56.229Z" fill="#E5E5E5"/>
<path d="M68.852 72.956H59.8638C59.5703 72.9556 59.2889 72.8389 59.0814 72.6314C58.8739 72.4239 58.7572 72.1425 58.7568 71.849V61.2423C58.7572 60.9488 58.8739 60.6674 59.0814 60.4599C59.2889 60.2524 59.5703 60.1357 59.8638 60.1353H68.852C69.1455 60.1357 69.4269 60.2524 69.6344 60.4599C69.8419 60.6674 69.9586 60.9488 69.959 61.2423V71.849C69.9586 72.1425 69.8419 72.4239 69.6344 72.6314C69.4269 72.8389 69.1455 72.9556 68.852 72.956Z" fill="#E5E5E5"/>
<path d="M23.3511 58.9349H14.3628C14.0693 58.9345 13.788 58.8178 13.5804 58.6103C13.3729 58.4028 13.2562 58.1214 13.2559 57.8279V47.2212C13.2562 46.9277 13.3729 46.6463 13.5804 46.4388C13.788 46.2313 14.0693 46.1146 14.3628 46.1142H23.3511C23.6445 46.1146 23.9259 46.2313 24.1334 46.4388C24.3409 46.6463 24.4577 46.9277 24.458 47.2212V57.8279C24.4577 58.1214 24.3409 58.4028 24.1334 58.6103C23.9259 58.8178 23.6445 58.9345 23.3511 58.9349Z" fill="#F5F5F5"/>
<path d="M48.6958 39.5021H39.7075C39.414 39.5017 39.1327 39.385 38.9252 39.1775C38.7176 38.97 38.6009 38.6886 38.6006 38.3951V27.7884C38.6009 27.4949 38.7176 27.2135 38.9252 27.006C39.1327 26.7985 39.414 26.6818 39.7075 26.6814H48.6958C48.9893 26.6818 49.2706 26.7985 49.4781 27.006C49.6857 27.2135 49.8024 27.4949 49.8027 27.7884V38.3951C49.8024 38.6886 49.6857 38.97 49.4781 39.1775C49.2706 39.385 48.9893 39.5017 48.6958 39.5021Z" fill="#E5E5E5"/>
<path d="M41.3264 10.0854H27.3052C27.0443 10.0854 26.794 9.98174 26.6095 9.79721C26.425 9.61269 26.3213 9.36242 26.3213 9.10146C26.3213 8.84051 26.425 8.59024 26.6095 8.40571C26.794 8.22119 27.0443 8.11752 27.3052 8.11752H41.3264C41.5873 8.11752 41.8376 8.22119 42.0221 8.40571C42.2066 8.59024 42.3103 8.84051 42.3103 9.10146C42.3103 9.36242 42.2066 9.61269 42.0221 9.79721C41.8376 9.98174 41.5873 10.0854 41.3264 10.0854Z" fill="#D4D4D4"/>
<path d="M80.9279 10.0854H66.9068C66.6458 10.0854 66.3956 9.98174 66.211 9.79721C66.0265 9.61269 65.9229 9.36242 65.9229 9.10146C65.9229 8.84051 66.0265 8.59024 66.211 8.40571C66.3956 8.22119 66.6458 8.11752 66.9068 8.11752H80.9279C81.1889 8.11752 81.4391 8.22119 81.6237 8.40571C81.8082 8.59024 81.9119 8.84051 81.9119 9.10146C81.9119 9.36242 81.8082 9.61269 81.6237 9.79721C81.4391 9.98174 81.1889 10.0854 80.9279 10.0854Z" fill="#D4D4D4"/>
<path d="M118.073 10.0854H104.052C103.791 10.0854 103.541 9.98174 103.357 9.79721C103.172 9.61269 103.068 9.36242 103.068 9.10146C103.068 8.84051 103.172 8.59024 103.357 8.40571C103.541 8.22119 103.791 8.11752 104.052 8.11752H118.073C118.334 8.11752 118.585 8.22119 118.769 8.40571C118.954 8.59024 119.057 8.84051 119.057 9.10146C119.057 9.36242 118.954 9.61269 118.769 9.79721C118.585 9.98174 118.334 10.0854 118.073 10.0854Z" fill="#D4D4D4"/>
<path d="M152.763 10.0854H138.742C138.481 10.0854 138.231 9.98174 138.046 9.79721C137.861 9.61269 137.758 9.36242 137.758 9.10146C137.758 8.84051 137.861 8.59024 138.046 8.40571C138.231 8.22119 138.481 8.11752 138.742 8.11752H152.763C153.024 8.11752 153.274 8.22119 153.459 8.40571C153.643 8.59024 153.747 8.84051 153.747 9.10146C153.747 9.36242 153.643 9.61269 153.459 9.79721C153.274 9.98174 153.024 10.0854 152.763 10.0854Z" fill="#D4D4D4"/>
</svg>
