<svg width="18" height="18" viewBox="0 0 18 18" fill="none" xmlns="http://www.w3.org/2000/svg">
<mask id="mask0_1383_6396" style="mask-type:alpha" maskUnits="userSpaceOnUse" x="0" y="0" width="18" height="18">
<rect width="18" height="18" fill="#D9D9D9"/>
</mask>
<g mask="url(#mask0_1383_6396)">
<path d="M6.97482 13.3125H11.0203C11.1582 13.3125 11.2748 13.2661 11.3701 13.1734C11.4654 13.0807 11.513 12.9658 11.513 12.8287C11.513 12.6916 11.4664 12.5755 11.3731 12.4803C11.2798 12.3851 11.1642 12.3375 11.0263 12.3375H6.98087C6.84296 12.3375 6.72635 12.3839 6.63105 12.4766C6.53574 12.5694 6.48809 12.6843 6.48809 12.8213C6.48809 12.9584 6.53473 13.0745 6.62802 13.1697C6.7213 13.2649 6.8369 13.3125 6.97482 13.3125ZM6.97482 10.6125H11.0203C11.1582 10.6125 11.2748 10.5661 11.3701 10.4734C11.4654 10.3807 11.513 10.2658 11.513 10.1287C11.513 9.99165 11.4664 9.87552 11.3731 9.78033C11.2798 9.68514 11.1642 9.63755 11.0263 9.63755H6.98087C6.84296 9.63755 6.72635 9.68391 6.63105 9.77664C6.53574 9.86936 6.48809 9.98426 6.48809 10.1213C6.48809 10.2584 6.53473 10.3745 6.62802 10.4697C6.7213 10.5649 6.8369 10.6125 6.97482 10.6125ZM5.17604 15.825C4.83824 15.825 4.55371 15.7084 4.32246 15.4753C4.09121 15.2422 3.97559 14.9568 3.97559 14.6192V3.38082C3.97559 3.04322 4.09215 2.75786 4.32527 2.52474C4.5584 2.29161 4.84376 2.17505 5.18136 2.17505H10.4833C10.644 2.17505 10.7971 2.2039 10.9427 2.2616C11.0883 2.31929 11.2227 2.40967 11.3458 2.53274L13.6679 4.85482C13.7909 4.97791 13.8813 5.11226 13.939 5.25787C13.9967 5.40349 14.0255 5.55664 14.0255 5.71732V14.6192C14.0255 14.9568 13.9089 15.2422 13.6756 15.4753C13.4424 15.7084 13.1568 15.825 12.819 15.825H5.17604ZM10.2756 5.32501V3.15003H5.18136C5.12366 3.15003 5.07077 3.17407 5.02268 3.22214C4.9746 3.27023 4.95057 3.32312 4.95057 3.38082V14.6192C4.95057 14.6769 4.9746 14.7298 5.02268 14.7779C5.07077 14.826 5.12366 14.85 5.18136 14.85H12.8198C12.8775 14.85 12.9304 14.826 12.9785 14.7779C13.0265 14.7298 13.0506 14.6769 13.0506 14.6192V5.92501H10.8755C10.7055 5.92501 10.563 5.86751 10.448 5.75251C10.3331 5.63751 10.2756 5.49501 10.2756 5.32501Z" fill="#1C1B1F"/>
</g>
</svg>
