<svg width="15" height="16" viewBox="0 0 15 16" fill="none" xmlns="http://www.w3.org/2000/svg">
<path d="M13.75 16C13.4 16 13.1042 15.8792 12.8625 15.6375C12.6208 15.3958 12.5 15.1 12.5 14.75V1.25C12.5 0.9 12.6208 0.604167 12.8625 0.3625C13.1042 0.120834 13.4 0 13.75 0C14.1 0 14.3958 0.120834 14.6375 0.3625C14.8792 0.604167 15 0.9 15 1.25V14.75C15 15.1 14.8792 15.3958 14.6375 15.6375C14.3958 15.8792 14.1 16 13.75 16ZM1.275 16C1.09167 16 0.920833 15.9667 0.7625 15.9C0.604167 15.8333 0.470834 15.7458 0.3625 15.6375C0.254167 15.5292 0.166667 15.3958 0.0999999 15.2375C0.0333332 15.0792 0 14.9167 0 14.75V11.25C0 10.9 0.120834 10.6042 0.3625 10.3625C0.604167 10.1208 0.9 10 1.25 10C1.6 10 1.89583 10.1208 2.1375 10.3625C2.37917 10.6042 2.5 10.9 2.5 11.25V14.75C2.5 14.9167 2.46667 15.0792 2.4 15.2375C2.33333 15.3958 2.24583 15.5292 2.1375 15.6375C2.02917 15.7458 1.9 15.8333 1.75 15.9C1.6 15.9667 1.44167 16 1.275 16ZM7.5 16C7.15 16 6.85417 15.8792 6.6125 15.6375C6.37083 15.3958 6.25 15.1 6.25 14.75V6.25C6.25 5.9 6.37083 5.60417 6.6125 5.3625C6.85417 5.12083 7.15 5 7.5 5C7.85 5 8.14583 5.12083 8.3875 5.3625C8.62917 5.60417 8.75 5.9 8.75 6.25V14.75C8.75 15.1 8.62917 15.3958 8.3875 15.6375C8.14583 15.8792 7.85 16 7.5 16Z" fill="#212529"/>
</svg>
