<svg width="18" height="16" viewBox="0 0 18 16" fill="none" xmlns="http://www.w3.org/2000/svg">
<path d="M11.3369 6.22222C12.1956 6.22222 12.8924 6.91911 12.8924 7.77778V11.9991C12.8924 13.0602 12.4709 14.0779 11.7206 14.8282C10.9703 15.5785 9.95266 16 8.89156 16C7.83045 16 6.81281 15.5785 6.0625 14.8282C5.31219 14.0779 4.89067 13.0602 4.89067 11.9991V7.77778C4.89067 6.91911 5.58667 6.22222 6.44622 6.22222H11.3369ZM11.3369 7.55556H6.44622C6.38729 7.55556 6.33076 7.57897 6.28909 7.62064C6.24741 7.66232 6.224 7.71884 6.224 7.77778V11.9991C6.224 12.7066 6.50505 13.3851 7.00531 13.8854C7.50557 14.3856 8.18408 14.6667 8.89156 14.6667C9.59904 14.6667 10.2775 14.3856 10.7778 13.8854C11.2781 13.3851 11.5591 12.7066 11.5591 11.9991V7.77778C11.5591 7.71884 11.5357 7.66232 11.494 7.62064C11.4523 7.57897 11.3958 7.55556 11.3369 7.55556ZM1.55556 6.22222H4.56089C4.24729 6.60097 4.05577 7.06582 4.01156 7.55556H1.55556C1.49662 7.55556 1.4401 7.57897 1.39842 7.62064C1.35675 7.66232 1.33333 7.71884 1.33333 7.77778V10.6658C1.33328 11.0017 1.40934 11.3332 1.5558 11.6355C1.70226 11.9378 1.91532 12.2029 2.17896 12.4111C2.44261 12.6192 2.74999 12.7649 3.07801 12.8372C3.40604 12.9095 3.74618 12.9065 4.07289 12.8284C4.14844 13.2764 4.28622 13.704 4.47556 14.1013C3.94869 14.2423 3.39647 14.2602 2.8616 14.1536C2.32672 14.0471 1.82351 13.8189 1.39089 13.4868C0.958263 13.1547 0.607812 12.7276 0.366634 12.2384C0.125456 11.7492 1.09331e-05 11.2112 0 10.6658V7.77778C0 6.91911 0.696889 6.22222 1.55556 6.22222ZM13.2222 6.22222H16.2222C17.0809 6.22222 17.7778 6.91911 17.7778 7.77778V10.6667C17.7779 11.2117 17.6527 11.7495 17.4119 12.2384C17.1711 12.7274 16.8211 13.1544 16.3889 13.4865C15.9568 13.8187 15.4541 14.047 14.9196 14.1539C14.3852 14.2608 13.8333 14.2435 13.3067 14.1031C13.4969 13.7049 13.6347 13.2773 13.7111 12.8293C14.0374 12.9065 14.3769 12.9087 14.7042 12.836C15.0315 12.7633 15.3381 12.6174 15.6011 12.4094C15.864 12.2013 16.0765 11.9365 16.2225 11.6347C16.3686 11.3329 16.4444 11.002 16.4444 10.6667V7.77778C16.4444 7.71884 16.421 7.66232 16.3794 7.62064C16.3377 7.57897 16.2812 7.55556 16.2222 7.55556H13.7716C13.7273 7.06582 13.5358 6.60097 13.2222 6.22222ZM8.88889 0C9.59613 0 10.2744 0.280952 10.7745 0.781049C11.2746 1.28115 11.5556 1.95942 11.5556 2.66667C11.5556 3.37391 11.2746 4.05219 10.7745 4.55229C10.2744 5.05238 9.59613 5.33333 8.88889 5.33333C8.18165 5.33333 7.50337 5.05238 7.00327 4.55229C6.50317 4.05219 6.22222 3.37391 6.22222 2.66667C6.22222 1.95942 6.50317 1.28115 7.00327 0.781049C7.50337 0.280952 8.18165 0 8.88889 0ZM14.6667 0.888889C15.256 0.888889 15.8213 1.12302 16.238 1.53976C16.6548 1.95651 16.8889 2.52174 16.8889 3.11111C16.8889 3.70048 16.6548 4.26571 16.238 4.68246C15.8213 5.09921 15.256 5.33333 14.6667 5.33333C14.0773 5.33333 13.5121 5.09921 13.0953 4.68246C12.6786 4.26571 12.4444 3.70048 12.4444 3.11111C12.4444 2.52174 12.6786 1.95651 13.0953 1.53976C13.5121 1.12302 14.0773 0.888889 14.6667 0.888889ZM3.11111 0.888889C3.70048 0.888889 4.26571 1.12302 4.68246 1.53976C5.09921 1.95651 5.33333 2.52174 5.33333 3.11111C5.33333 3.70048 5.09921 4.26571 4.68246 4.68246C4.26571 5.09921 3.70048 5.33333 3.11111 5.33333C2.52174 5.33333 1.95651 5.09921 1.53976 4.68246C1.12302 4.26571 0.888889 3.70048 0.888889 3.11111C0.888889 2.52174 1.12302 1.95651 1.53976 1.53976C1.95651 1.12302 2.52174 0.888889 3.11111 0.888889ZM8.88889 1.33333C8.53527 1.33333 8.19613 1.47381 7.94608 1.72386C7.69603 1.97391 7.55556 2.31304 7.55556 2.66667C7.55556 3.02029 7.69603 3.35943 7.94608 3.60948C8.19613 3.85952 8.53527 4 8.88889 4C9.24251 4 9.58165 3.85952 9.8317 3.60948C10.0817 3.35943 10.2222 3.02029 10.2222 2.66667C10.2222 2.31304 10.0817 1.97391 9.8317 1.72386C9.58165 1.47381 9.24251 1.33333 8.88889 1.33333ZM14.6667 2.22222C14.4309 2.22222 14.2048 2.31587 14.0381 2.48257C13.8714 2.64927 13.7778 2.87536 13.7778 3.11111C13.7778 3.34686 13.8714 3.57295 14.0381 3.73965C14.2048 3.90635 14.4309 4 14.6667 4C14.9024 4 15.1285 3.90635 15.2952 3.73965C15.4619 3.57295 15.5556 3.34686 15.5556 3.11111C15.5556 2.87536 15.4619 2.64927 15.2952 2.48257C15.1285 2.31587 14.9024 2.22222 14.6667 2.22222ZM3.11111 2.22222C2.87536 2.22222 2.64927 2.31587 2.48257 2.48257C2.31587 2.64927 2.22222 2.87536 2.22222 3.11111C2.22222 3.34686 2.31587 3.57295 2.48257 3.73965C2.64927 3.90635 2.87536 4 3.11111 4C3.34686 4 3.57295 3.90635 3.73965 3.73965C3.90635 3.57295 4 3.34686 4 3.11111C4 2.87536 3.90635 2.64927 3.73965 2.48257C3.57295 2.31587 3.34686 2.22222 3.11111 2.22222Z" fill="black"/>
</svg>
