<svg width="19" height="19" viewBox="0 0 19 19" fill="none" xmlns="http://www.w3.org/2000/svg">
<path d="M2.10438 8.73062C1.80846 8.73062 1.55041 8.62054 1.33024 8.40036C1.11008 8.1802 1 7.92217 1 7.62625V2.10438C1 1.80846 1.11008 1.55041 1.33024 1.33024C1.55041 1.11008 1.80846 1 2.10438 1H7.62625C7.92217 1 8.1802 1.11008 8.40036 1.33024C8.62054 1.55041 8.73062 1.80846 8.73062 2.10438V7.62625C8.73062 7.92217 8.62054 8.1802 8.40036 8.40036C8.1802 8.62054 7.92217 8.73062 7.62625 8.73062H2.10438ZM2.10438 18.67C1.80846 18.67 1.55041 18.5599 1.33024 18.3398C1.11008 18.1196 1 17.8615 1 17.5656V12.0437C1 11.7478 1.11008 11.4898 1.33024 11.2696C1.55041 11.0495 1.80846 10.9394 2.10438 10.9394H7.62625C7.92217 10.9394 8.1802 11.0495 8.40036 11.2696C8.62054 11.4898 8.73062 11.7478 8.73062 12.0437V17.5656C8.73062 17.8615 8.62054 18.1196 8.40036 18.3398C8.1802 18.5599 7.92217 18.67 7.62625 18.67H2.10438ZM12.0437 8.73062C11.7478 8.73062 11.4898 8.62054 11.2696 8.40036C11.0495 8.1802 10.9394 7.92217 10.9394 7.62625V2.10438C10.9394 1.80846 11.0495 1.55041 11.2696 1.33024C11.4898 1.11008 11.7478 1 12.0437 1H17.5656C17.8615 1 18.1196 1.11008 18.3398 1.33024C18.5599 1.55041 18.67 1.80846 18.67 2.10438V7.62625C18.67 7.92217 18.5599 8.1802 18.3398 8.40036C18.1196 8.62054 17.8615 8.73062 17.5656 8.73062H12.0437ZM12.0437 18.67C11.7478 18.67 11.4898 18.5599 11.2696 18.3398C11.0495 18.1196 10.9394 17.8615 10.9394 17.5656V12.0437C10.9394 11.7478 11.0495 11.4898 11.2696 11.2696C11.4898 11.0495 11.7478 10.9394 12.0437 10.9394H17.5656C17.8615 10.9394 18.1196 11.0495 18.3398 11.2696C18.5599 11.4898 18.67 11.7478 18.67 12.0437V17.5656C18.67 17.8615 18.5599 18.1196 18.3398 18.3398C18.1196 18.5599 17.8615 18.67 17.5656 18.67H12.0437ZM2.10438 7.62625H7.62625V2.10438H2.10438V7.62625ZM12.0437 7.62625H17.5656V2.10438H12.0437V7.62625ZM12.0437 17.5656H17.5656V12.0437H12.0437V17.5656ZM2.10438 17.5656H7.62625V12.0437H2.10438V17.5656Z" fill="#8F8F93" stroke="#8F8F93" stroke-width="0.5"/>
</svg>
