<svg width="18" height="18" viewBox="0 0 18 18" fill="none" xmlns="http://www.w3.org/2000/svg">
<mask id="mask0_1383_6399" style="mask-type:alpha" maskUnits="userSpaceOnUse" x="0" y="0" width="18" height="18">
<rect width="18" height="18" fill="#D9D9D9"/>
</mask>
<g mask="url(#mask0_1383_6399)">
<path d="M4.28097 14.9249C3.94337 14.9249 3.65801 14.8062 3.42488 14.5687C3.19176 14.3312 3.0752 14.048 3.0752 13.7191V4.28073C3.0752 3.95188 3.19176 3.6687 3.42488 3.4312C3.65801 3.1937 3.94337 3.07495 4.28097 3.07495H13.7194C14.057 3.07495 14.3423 3.1937 14.5755 3.4312C14.8086 3.6687 14.9252 3.95188 14.9252 4.28073V13.7191C14.9252 14.048 14.8086 14.3312 14.5755 14.5687C14.3423 14.8062 14.057 14.9249 13.7194 14.9249H4.28097ZM4.28097 13.9499H13.7194C13.7771 13.9499 13.83 13.9259 13.8781 13.8778C13.9261 13.8297 13.9502 13.7768 13.9502 13.7191V4.28073C13.9502 4.22303 13.9261 4.17013 13.8781 4.12205C13.83 4.07397 13.7771 4.04993 13.7194 4.04993H4.28097C4.22327 4.04993 4.17038 4.07397 4.12229 4.12205C4.07421 4.17013 4.05018 4.22303 4.05018 4.28073V13.7191C4.05018 13.7768 4.07421 13.8297 4.12229 13.8778C4.17038 13.9259 4.22327 13.9499 4.28097 13.9499ZM6.1156 12.4124H11.9461C12.0667 12.4124 12.1535 12.3571 12.2064 12.2466C12.2593 12.136 12.2492 12.0292 12.1761 11.9264L10.4252 9.58698C10.3643 9.49659 10.2865 9.4514 10.1915 9.4514C10.0966 9.4514 10.0187 9.49659 9.95785 9.58698L8.31076 11.7144L7.38192 10.5519C7.32111 10.4663 7.24443 10.4235 7.15188 10.4235C7.05933 10.4235 6.98265 10.4687 6.92183 10.5591L5.89257 11.9268C5.81241 12.0294 5.80033 12.136 5.85635 12.2466C5.91236 12.3571 5.99878 12.4124 6.1156 12.4124Z" fill="#1C1B1F"/>
</g>
</svg>
