<svg width="22" height="22" viewBox="0 0 22 22" fill="none" xmlns="http://www.w3.org/2000/svg">
<path d="M11.0037 21C9.62089 21 8.3208 20.7376 7.10344 20.2128C5.88609 19.688 4.82716 18.9757 3.92664 18.0761C3.02614 17.1764 2.31324 16.1185 1.78794 14.9023C1.26265 13.6861 1 12.3865 1 11.0037C1 9.62089 1.2625 8.3208 1.7875 7.10344C2.3125 5.88609 3.025 4.82716 3.925 3.92664C4.825 3.02614 5.88333 2.31324 7.1 1.78794C8.31667 1.26265 9.61667 1 11 1C11.9601 1 12.8864 1.1339 13.7788 1.40169C14.6713 1.66951 15.5207 2.05484 16.3269 2.55769C16.4765 2.64886 16.5751 2.77136 16.6229 2.92519C16.6706 3.07905 16.6446 3.2215 16.5449 3.35256C16.4452 3.48361 16.3137 3.56125 16.1506 3.58547C15.9875 3.60969 15.8362 3.57621 15.6966 3.48503C14.99 3.03632 14.239 2.69516 13.4434 2.46153C12.6478 2.22792 11.8333 2.11111 11 2.11111C8.53704 2.11111 6.43982 2.97685 4.70833 4.70833C2.97685 6.43982 2.11111 8.53704 2.11111 11C2.11111 13.463 2.97685 15.5602 4.70833 17.2917C6.43982 19.0231 8.53704 19.8889 11 19.8889C13.463 19.8889 15.5602 19.0231 17.2917 17.2917C19.0231 15.5602 19.8889 13.463 19.8889 11C19.8889 10.7181 19.8771 10.445 19.8536 10.1806C19.8301 9.91634 19.7878 9.64602 19.7265 9.36967C19.6895 9.21124 19.7105 9.05982 19.7895 8.91539C19.8686 8.77094 19.9885 8.68092 20.1492 8.64531C20.3005 8.60969 20.438 8.63747 20.562 8.72864C20.6859 8.81981 20.7664 8.94232 20.8034 9.09617C20.869 9.39815 20.9181 9.7066 20.9509 10.0215C20.9836 10.3364 21 10.6626 21 11C21 12.3833 20.7376 13.6833 20.2128 14.9C19.688 16.1167 18.9757 17.175 18.0761 18.075C17.1764 18.975 16.1185 19.6875 14.9023 20.2125C13.6861 20.7375 12.3865 21 11.0037 21ZM9.40172 13.7692L19.8205 3.344C19.9245 3.24002 20.0509 3.1834 20.1998 3.17414C20.3486 3.16488 20.4859 3.22306 20.6115 3.34867C20.7266 3.4638 20.7842 3.5933 20.7842 3.73717C20.7842 3.88106 20.7251 4.01211 20.6068 4.13033L10.0299 14.7137C9.85044 14.8932 9.64104 14.9829 9.40172 14.9829C9.16239 14.9829 8.95298 14.8932 8.7735 14.7137L5.84189 11.7821C5.73789 11.6781 5.68233 11.5506 5.67522 11.3996C5.66809 11.2486 5.72365 11.114 5.84189 10.9957C5.96011 10.8775 6.09117 10.8184 6.23506 10.8184C6.37893 10.8184 6.50997 10.8775 6.62819 10.9957L9.40172 13.7692Z" fill="#8F8F93" stroke="#8F8F93" stroke-width="0.5"/>
</svg>
