<svg width="155" height="118" viewBox="0 0 155 118" fill="none" xmlns="http://www.w3.org/2000/svg">
<g clip-path="url(#clip0_2748_5127)">
<path d="M0.508963 3.84672C0.508963 2.28389 1.77589 1.01696 3.33872 1.01696H169.351C170.914 1.01696 172.181 2.28389 172.181 3.84672V144.014H0.508963V3.84672Z" fill="white" stroke="black" stroke-width="0.377302"/>
<path d="M1.07422 3.84669C1.07422 2.59643 2.08776 1.58289 3.33803 1.58289H153.504C154.754 1.58289 155.768 2.59643 155.768 3.8467V8.37431H1.07422V3.84669Z" fill="white"/>
<line x1="38.2394" y1="8.37433" x2="38.2394" y2="144.203" stroke="black" stroke-width="0.377302"/>
<line x1="0.320312" y1="8.18568" x2="158.787" y2="8.18566" stroke="black" stroke-width="0.377302"/>
<rect x="3.33789" y="11.3927" width="27.1657" height="4.52762" rx="0.754603" fill="#2E2E2E"/>
<rect x="3.33789" y="20.4479" width="29.4295" height="3.01841" rx="0.754603" fill="#404040"/>
<rect x="3.33789" y="27.2394" width="23.3927" height="3.01841" rx="0.754603" fill="#404040"/>
<rect x="3.33789" y="40.8222" width="19.6197" height="3.01841" rx="0.754603" fill="#404040"/>
<rect x="3.33789" y="61.1965" width="25.6565" height="3.01841" rx="0.754603" fill="#404040"/>
<rect x="3.33789" y="34.0308" width="26.4111" height="3.01841" rx="0.754603" fill="#404040"/>
<rect x="3.33789" y="47.6136" width="21.8835" height="3.01841" rx="0.754603" fill="#404040"/>
<rect x="3.33789" y="54.405" width="28.6749" height="3.01841" rx="0.754603" fill="#404040"/>
<rect x="32.0117" y="11.3927" width="4.52762" height="4.52762" rx="2.26381" fill="#2E2E2E"/>
<rect x="49.3691" y="34.0308" width="38.4848" height="3.01841" rx="0.754603" fill="#2E2E2E"/>
<rect x="49.3691" y="40.8222" width="99.6076" height="3.01841" rx="0.754603" fill="#404040"/>
<rect x="49.3691" y="46.1044" width="73.1965" height="3.01841" rx="0.754603" fill="#404040"/>
<rect x="56.1621" y="58.1781" width="39.2394" height="3.01841" rx="0.754603" fill="#404040"/>
<rect x="56.1621" y="66.4787" width="58.859" height="3.01841" rx="0.754603" fill="#404040"/>
<rect x="56.1621" y="74.7794" width="53.5768" height="3.01841" rx="0.754603" fill="#404040"/>
<rect x="56.1621" y="83.08" width="43.767" height="3.01841" rx="0.754603" fill="#404040"/>
<rect x="97.6621" y="58.1781" width="4.52762" height="3.01841" rx="0.754603" fill="#404040"/>
<rect x="117.283" y="66.4787" width="4.52762" height="3.01841" rx="0.754603" fill="#404040"/>
<rect x="112.002" y="74.7794" width="4.52762" height="3.01841" rx="0.754603" fill="#404040"/>
<rect x="102.191" y="83.08" width="4.52762" height="3.01841" rx="0.754603" fill="#404040"/>
<rect x="49.3691" y="57.4235" width="4.52762" height="4.52762" rx="2.26381" fill="#3A3A3A"/>
<rect x="49.3691" y="65.7241" width="4.52762" height="4.52762" rx="2.26381" fill="#3A3A3A"/>
<rect x="49.3691" y="74.0248" width="4.52762" height="4.52762" rx="2.26381" fill="#3A3A3A"/>
<rect x="49.3691" y="82.3254" width="4.52762" height="4.52762" rx="2.26381" fill="#3A3A3A"/>
<rect x="49.3691" y="20.4479" width="9.05524" height="9.05524" rx="4.52762" fill="#262626"/>
<rect x="3.33984" y="3.84674" width="2.26381" height="2.26381" rx="1.1319" fill="#EF4444"/>
<rect x="6.35742" y="3.84674" width="2.26381" height="2.26381" rx="1.1319" fill="#FCD34D"/>
<rect x="9.37695" y="3.84674" width="2.26381" height="2.26381" rx="1.1319" fill="#4ADE80"/>
<rect x="91.625" y="34.0308" width="9.80984" height="3.01841" rx="0.754603" fill="#3F76FF"/>
</g>
<defs>
<clipPath id="clip0_2748_5127">
<rect width="153.939" height="116.209" fill="white" transform="translate(0.318359 0.828247)"/>
</clipPath>
</defs>
</svg>
