<svg width="14" height="14" viewBox="0 0 14 14" fill="none" xmlns="http://www.w3.org/2000/svg">
<path d="M6.72797 12.6203C5.98808 13.3602 5.09668 13.7302 4.05377 13.7303C3.01085 13.7303 2.1195 13.3605 1.37969 12.6207C0.639894 11.8809 0.26992 10.9894 0.269773 9.94627C0.269625 8.90314 0.639496 8.01163 1.37939 7.27174L3.18115 5.46997C3.30637 5.34475 3.4537 5.28217 3.62314 5.28222C3.79258 5.28225 3.93994 5.3449 4.06521 5.47018C4.19048 5.59544 4.25306 5.74273 4.25296 5.91205C4.25288 6.08135 4.19022 6.22861 4.06501 6.35382L2.26324 8.15559C1.76841 8.65042 1.521 9.24723 1.521 9.94603C1.521 10.6448 1.76841 11.2416 2.26324 11.7365C2.75807 12.2313 3.35488 12.4787 4.05368 12.4787C4.75248 12.4787 5.34929 12.2313 5.84412 11.7365L7.64588 9.9347C7.7711 9.80949 7.91842 9.7469 8.08785 9.74694C8.2573 9.74697 8.40466 9.80963 8.52993 9.93489C8.6552 10.0602 8.71779 10.2075 8.7177 10.3768C8.71761 10.5461 8.65495 10.6933 8.52974 10.8186L6.72797 12.6203ZM5.67412 9.20945C5.5489 9.33466 5.40158 9.39725 5.23215 9.39721C5.06269 9.39717 4.91534 9.33452 4.79007 9.20925C4.66479 9.08398 4.60221 8.93668 4.6023 8.76737C4.60239 8.59807 4.66505 8.45081 4.79026 8.32559L8.3258 4.79006C8.45101 4.66484 8.59834 4.60225 8.76778 4.60228C8.93722 4.60233 9.08458 4.66498 9.20984 4.79025C9.33512 4.91552 9.39771 5.06281 9.39762 5.23212C9.39752 5.40143 9.33487 5.5487 9.20965 5.67391L5.67412 9.20945ZM10.8188 8.52953C10.6935 8.65475 10.5462 8.71733 10.3768 8.71728C10.2073 8.71726 10.06 8.6546 9.9347 8.52933C9.80943 8.40406 9.74685 8.25677 9.74695 8.08746C9.74704 7.91816 9.80969 7.7709 9.93491 7.64568L11.7367 5.84391C12.2315 5.34908 12.4789 4.75227 12.4789 4.05347C12.4789 3.35468 12.2315 2.75786 11.7367 2.26304C11.2418 1.76821 10.645 1.52079 9.94623 1.52079C9.24744 1.52079 8.65062 1.76821 8.1558 2.26303L6.35403 4.0648C6.22881 4.19002 6.08149 4.25261 5.91206 4.25257C5.74261 4.25253 5.59525 4.18988 5.46998 4.06461C5.34471 3.93933 5.28212 3.79204 5.28222 3.62273C5.2823 3.45343 5.34496 3.30617 5.47017 3.18095L7.27194 1.37918C8.01183 0.639292 8.90323 0.269313 9.94615 0.269244C10.9891 0.269186 11.8804 0.639056 12.6202 1.37886C13.36 2.11866 13.73 3.01012 13.7301 4.05324C13.7303 5.09637 13.3604 5.98788 12.6205 6.72777L10.8188 8.52953Z" fill="#1C1B1F"/>
</svg>
