<svg width="24" height="24" viewBox="0 0 24 24" fill="none" xmlns="http://www.w3.org/2000/svg">
<path d="M1.73075 17.5768C1.5237 17.5768 1.35015 17.5068 1.2101 17.3667C1.07003 17.2266 1 17.0531 1 16.846V16.7133C1 16.0954 1.32102 15.588 1.96305 15.1912C2.60508 14.7944 3.4514 14.596 4.502 14.596C4.69168 14.596 4.87275 14.6011 5.0452 14.6114C5.21763 14.6217 5.38269 14.6435 5.54038 14.6768C5.39346 14.9285 5.2859 15.1992 5.2177 15.4887C5.14948 15.7782 5.11538 16.0822 5.11538 16.4007V17.5768H1.73075ZM7.81563 17.5768C7.57828 17.5768 7.383 17.4994 7.2298 17.3446C7.0766 17.1898 7 16.9979 7 16.7691V16.4768C7 15.6499 7.45801 14.9886 8.37402 14.4931C9.29006 13.9976 10.4962 13.7499 11.9924 13.7499C13.5026 13.7499 14.7148 13.9976 15.6288 14.4931C16.5429 14.9886 17 15.6499 17 16.4768V16.7691C17 16.9979 16.9226 17.1898 16.7678 17.3446C16.613 17.4994 16.4212 17.5768 16.1923 17.5768H7.81563ZM18.8846 17.5768V16.4007C18.8846 16.0822 18.8479 15.7782 18.7744 15.4887C18.701 15.1992 18.596 14.9285 18.4596 14.6768C18.6173 14.6435 18.7817 14.6217 18.9529 14.6114C19.1241 14.6011 19.3065 14.596 19.5 14.596C20.55 14.596 21.3958 14.7944 22.0375 15.1912C22.6792 15.588 23 16.0954 23 16.7133V16.846C23 17.0531 22.93 17.2266 22.7899 17.3667C22.6499 17.5068 22.4763 17.5768 22.2692 17.5768H18.8846ZM12 14.7499C10.8577 14.7499 9.91796 14.9047 9.18077 15.2143C8.44359 15.5239 8.05962 15.914 8.02885 16.3845V16.5768H15.9712V16.3845C15.9365 15.9101 15.5516 15.5191 14.8163 15.2114C14.0811 14.9037 13.1423 14.7499 12 14.7499ZM4.5 13.6537C4.10385 13.6537 3.77083 13.5144 3.50095 13.2357C3.23108 12.957 3.09615 12.622 3.09615 12.2306C3.09615 11.8393 3.23108 11.5043 3.50095 11.2256C3.77083 10.9469 4.10385 10.8075 4.5 10.8075C4.89615 10.8075 5.23237 10.9469 5.50865 11.2256C5.78493 11.5043 5.92308 11.8393 5.92308 12.2306C5.92308 12.622 5.78373 12.957 5.50505 13.2357C5.22637 13.5144 4.89135 13.6537 4.5 13.6537ZM19.5 13.6537C19.1038 13.6537 18.7676 13.5144 18.4914 13.2357C18.2151 12.957 18.0769 12.622 18.0769 12.2306C18.0769 11.8393 18.2163 11.5043 18.4949 11.2256C18.7736 10.9469 19.1087 10.8075 19.5 10.8075C19.8962 10.8075 20.2292 10.9469 20.4991 11.2256C20.7689 11.5043 20.9039 11.8393 20.9039 12.2306C20.9039 12.622 20.7689 12.957 20.4991 13.2357C20.2292 13.5144 19.8962 13.6537 19.5 13.6537ZM12 12.9999C11.391 12.9999 10.8734 12.7867 10.4471 12.3604C10.0208 11.9342 9.80768 11.4165 9.80768 10.8075C9.80768 10.1986 10.0208 9.68094 10.4471 9.25466C10.8734 8.82838 11.391 8.61523 12 8.61523C12.609 8.61523 13.1266 8.82838 13.5529 9.25466C13.9792 9.68094 14.1923 10.1986 14.1923 10.8075C14.1923 11.4165 13.9792 11.9342 13.5529 12.3604C13.1266 12.7867 12.609 12.9999 12 12.9999ZM12.0034 9.61523C11.6665 9.61523 11.383 9.72918 11.1529 9.95706C10.9228 10.1849 10.8077 10.4673 10.8077 10.8042C10.8077 11.141 10.9216 11.4245 11.1495 11.6547C11.3774 11.8848 11.6598 11.9999 11.9966 11.9999C12.3335 11.9999 12.617 11.8859 12.8471 11.658C13.0772 11.4302 13.1923 11.1478 13.1923 10.8109C13.1923 10.474 13.0784 10.1906 12.8505 9.96043C12.6226 9.7303 12.3402 9.61523 12.0034 9.61523Z" fill="#FBBF24"/>
</svg>
