<svg width="25" height="16" viewBox="0 0 25 16" fill="none" xmlns="http://www.w3.org/2000/svg">
<path d="M1.67799 15.29C1.4859 15.29 1.32487 15.2249 1.19492 15.0948C1.06497 14.9647 1 14.8035 1 14.6111C1 14.4187 1.06497 14.2578 1.19492 14.1283C1.32487 13.9988 1.4859 13.934 1.67799 13.934H23.3738C23.5659 13.934 23.7269 13.9991 23.8569 14.1292C23.9868 14.2593 24.0518 14.4206 24.0518 14.6129C24.0518 14.8053 23.9868 14.9662 23.8569 15.0958C23.7269 15.2253 23.5659 15.29 23.3738 15.29H1.67799ZM1.67799 8.82299C1.4859 8.82299 1.32487 8.75793 1.19492 8.6278C1.06497 8.49767 1 8.33643 1 8.14409C1 7.95172 1.06497 7.79078 1.19492 7.66129C1.32487 7.53177 1.4859 7.46701 1.67799 7.46701H23.3738C23.5659 7.46701 23.7269 7.53207 23.8569 7.6622C23.9868 7.79233 24.0518 7.95357 24.0518 8.14592C24.0518 8.33828 23.9868 8.49922 23.8569 8.62871C23.7269 8.75823 23.5659 8.82299 23.3738 8.82299H1.67799ZM1.67799 2.35599C1.4859 2.35599 1.32487 2.29092 1.19492 2.16079C1.06497 2.03066 1 1.86943 1 1.67708C1 1.48471 1.06497 1.32376 1.19492 1.19425C1.32487 1.06475 1.4859 1 1.67799 1H23.3738C23.5659 1 23.7269 1.06505 23.8569 1.19516C23.9868 1.32529 24.0518 1.48654 24.0518 1.67891C24.0518 1.87126 23.9868 2.03219 23.8569 2.16171C23.7269 2.29123 23.5659 2.35599 23.3738 2.35599H1.67799Z" fill="#8F8F93" stroke="#8F8F93" stroke-width="0.5"/>
</svg>
