<svg width="18" height="24" viewBox="0 0 18 24" fill="none" xmlns="http://www.w3.org/2000/svg">
<path d="M1.125 20.032C0.877083 20.032 0.669271 19.9481 0.501563 19.7804C0.333854 19.6126 0.25 19.4047 0.25 19.1567C0.25 18.9086 0.333854 18.7009 0.501563 18.5334C0.669271 18.3658 0.877083 18.2821 1.125 18.2821H2.35898V9.57691C2.35898 8.0079 2.84322 6.62062 3.81169 5.41506C4.78018 4.20951 6.0235 3.43847 7.54167 3.10194V2.37502C7.54167 1.96993 7.68332 1.62561 7.96662 1.34206C8.24993 1.05848 8.59394 0.916687 8.99866 0.916687C9.40337 0.916687 9.74782 1.05848 10.032 1.34206C10.3162 1.62561 10.4583 1.96993 10.4583 2.37502V3.10194C11.9764 3.43847 13.2198 4.20951 14.1883 5.41506C15.1567 6.62062 15.641 8.0079 15.641 9.57691V18.2821H16.8749C17.1229 18.2821 17.3307 18.366 17.4984 18.5337C17.6661 18.7015 17.7499 18.9094 17.7499 19.1574C17.7499 19.4055 17.6661 19.6132 17.4984 19.7808C17.3307 19.9483 17.1229 20.032 16.8749 20.032H1.125ZM8.99799 23.3076C8.41747 23.3076 7.92118 23.1011 7.50912 22.6881C7.09705 22.2751 6.89102 21.7787 6.89102 21.1987H11.1089C11.1089 21.7805 10.9022 22.2775 10.4888 22.6895C10.0755 23.1016 9.5785 23.3076 8.99799 23.3076ZM4.10892 18.2821H13.891V9.57691C13.891 8.22626 13.4135 7.07343 12.4585 6.11842C11.5035 5.16338 10.3506 4.68587 8.99997 4.68587C7.64932 4.68587 6.49649 5.16338 5.54147 6.11842C4.58644 7.07343 4.10892 8.22626 4.10892 9.57691V18.2821Z" fill="#A3A3A3"/>
</svg>
