<svg xmlns="http://www.w3.org/2000/svg" height="48" viewBox="0 -960 960 960" width="48"><path d="M190-200q-12.75 0-21.375-8.675-8.625-8.676-8.625-21.5 0-12.825 8.625-21.325T190-260h50v-304q0-84 49.5-150.5T420-798v-22q0-25 17.5-42.5T480-880q25 0 42.5 17.5T540-820v22q81 17 130.5 83.5T720-564v304h50q12.75 0 21.375 8.675 8.625 8.676 8.625 21.5 0 12.825-8.625 21.325T770-200H190Zm290-302Zm0 422q-33 0-56.5-23.5T400-160h160q0 33-23.5 56.5T480-80ZM300-260h360v-304q0-75-52.5-127.5T480-744q-75 0-127.5 52.5T300-564v304Z"/></svg>