<svg width="14" height="16" viewBox="0 0 14 16" fill="none" xmlns="http://www.w3.org/2000/svg">
<path d="M4.49998 12.7913H9.49998C9.67706 12.7913 9.8255 12.7314 9.94529 12.6116C10.0651 12.4917 10.125 12.3432 10.125 12.166C10.125 11.9889 10.0651 11.8405 9.94529 11.7208C9.8255 11.6012 9.67706 11.5413 9.49998 11.5413H4.49998C4.3229 11.5413 4.17447 11.6013 4.05469 11.7211C3.9349 11.8409 3.875 11.9894 3.875 12.1666C3.875 12.3438 3.9349 12.4922 4.05469 12.6118C4.17447 12.7315 4.3229 12.7913 4.49998 12.7913ZM4.49998 9.45797H9.49998C9.67706 9.45797 9.8255 9.39805 9.94529 9.27822C10.0651 9.15837 10.125 9.00987 10.125 8.83272C10.125 8.65555 10.0651 8.50714 9.94529 8.38749C9.8255 8.26784 9.67706 8.20801 9.49998 8.20801H4.49998C4.3229 8.20801 4.17447 8.26793 4.05469 8.38776C3.9349 8.50761 3.875 8.65611 3.875 8.83326C3.875 9.01043 3.9349 9.15883 4.05469 9.27849C4.17447 9.39814 4.3229 9.45797 4.49998 9.45797ZM2.25642 15.9163C1.83547 15.9163 1.47917 15.7705 1.1875 15.4788C0.895833 15.1871 0.75 14.8308 0.75 14.4099V1.58942C0.75 1.16848 0.895833 0.812175 1.1875 0.520508C1.47917 0.228841 1.83547 0.0830078 2.25642 0.0830078H8.2516C8.45483 0.0830078 8.64853 0.122008 8.83271 0.200008C9.01687 0.277994 9.17734 0.385362 9.3141 0.522112L12.8109 4.01886C12.9476 4.15563 13.055 4.31609 13.133 4.50026C13.211 4.68444 13.25 4.87814 13.25 5.08136V14.4099C13.25 14.8308 13.1041 15.1871 12.8125 15.4788C12.5208 15.7705 12.1645 15.9163 11.7435 15.9163H2.25642ZM8.25 4.33297V1.33299H2.25642C2.19231 1.33299 2.13353 1.3597 2.0801 1.41311C2.02669 1.46654 1.99998 1.52531 1.99998 1.58942V14.4099C1.99998 14.474 2.02669 14.5328 2.0801 14.5862C2.13353 14.6396 2.19231 14.6663 2.25642 14.6663H11.7435C11.8077 14.6663 11.8664 14.6396 11.9199 14.5862C11.9733 14.5328 12 14.474 12 14.4099V5.08297H8.99985C8.78735 5.08297 8.60926 5.01109 8.46556 4.86734C8.32185 4.72359 8.25 4.54547 8.25 4.33297Z" fill="black"/>
</svg>
