<svg width="14" height="14" viewBox="0 0 14 14" fill="none" xmlns="http://www.w3.org/2000/svg">
<path d="M3.59157 10.4092C2.91728 9.73487 2.45809 8.87577 2.27205 7.94051C2.08601 7.00524 2.1815 6.03581 2.54642 5.15481C2.91134 4.27381 3.52932 3.52081 4.3222 2.99102C5.11508 2.46124 6.04725 2.17847 7.00084 2.17847C8.34872 2.18354 9.64246 2.70948 10.6116 3.64632L11.8223 4.85704" stroke="#F59E0B" stroke-width="0.952381" stroke-linecap="round" stroke-linejoin="round"/>
<path d="M11.8223 2.17847V4.85704H9.14369" stroke="#F59E0B" stroke-width="0.952381" stroke-linecap="round" stroke-linejoin="round"/>
<path d="M7 4.32178V7.00035L9.14286 8.07178" stroke="#F59E0B" stroke-width="0.952381" stroke-linecap="round" stroke-linejoin="round"/>
<path d="M11.8203 6.79346C11.8476 7.40918 11.7558 8.02439 11.5499 8.60529" stroke="#F59E0B" stroke-width="0.857034" stroke-linecap="round" stroke-linejoin="round"/>
<path d="M10.5549 10.2614C10.1369 10.7167 9.63472 11.087 9.07612 11.3518" stroke="#F59E0B" stroke-width="0.857034" stroke-linecap="round" stroke-linejoin="round"/>
<path d="M7.20832 11.8181C6.5926 11.8453 5.97742 11.7534 5.39648 11.5476" stroke="#F59E0B" stroke-width="0.857034" stroke-linecap="round" stroke-linejoin="round"/>
</svg>
