<svg width="11" height="13" viewBox="0 0 11 13" fill="none" xmlns="http://www.w3.org/2000/svg">
<path d="M9.58624 12.5239C9.34587 12.5239 9.14155 12.4398 8.97329 12.2715C8.80501 12.1032 8.72087 11.8989 8.72087 11.6585V1.76429C8.72087 1.52391 8.80501 1.31958 8.97329 1.15132C9.14155 0.983057 9.34587 0.898926 9.58624 0.898926C9.82663 0.898926 10.031 0.983057 10.1992 1.15132C10.3675 1.31958 10.4516 1.52391 10.4516 1.76429V11.6585C10.4516 11.8989 10.3675 12.1032 10.1992 12.2715C10.031 12.4398 9.82663 12.5239 9.58624 12.5239ZM1.1629 12.5239C1.04676 12.5239 0.93557 12.5018 0.82932 12.4576C0.723083 12.4133 0.630058 12.3513 0.550245 12.2715C0.470445 12.1917 0.408426 12.0986 0.364189 11.9922C0.319964 11.8858 0.297852 11.7746 0.297852 11.6585V9.2643C0.297852 9.02391 0.381983 8.81958 0.550245 8.65132C0.718508 8.48306 0.922832 8.39893 1.16322 8.39893C1.40359 8.39893 1.60791 8.48306 1.77618 8.65132C1.94445 8.81958 2.02859 9.02391 2.02859 9.2643V11.6585C2.02859 11.7746 2.00647 11.8858 1.96223 11.9922C1.91801 12.0986 1.85599 12.1917 1.77618 12.2715C1.69638 12.3513 1.60325 12.4133 1.49678 12.4576C1.39033 12.5018 1.27904 12.5239 1.1629 12.5239ZM5.37473 12.5239C5.13436 12.5239 4.93003 12.4398 4.76176 12.2715C4.59349 12.1032 4.50936 11.8989 4.50936 11.6585V5.5143C4.50936 5.27391 4.59349 5.06958 4.76176 4.90132C4.93003 4.73306 5.13436 4.64893 5.37473 4.64893C5.61511 4.64893 5.81943 4.73306 5.98771 4.90132C6.15597 5.06958 6.2401 5.27391 6.2401 5.5143V11.6585C6.2401 11.8989 6.15597 12.1032 5.98771 12.2715C5.81943 12.4398 5.61511 12.5239 5.37473 12.5239Z" fill="#8F8F93"/>
</svg>
