<svg width="18" height="18" viewBox="0 0 18 18" fill="none" xmlns="http://www.w3.org/2000/svg">
<path d="M8.99997 8.64097C7.87707 8.64097 6.9158 8.24116 6.11615 7.44153C5.31649 6.64187 4.91667 5.6806 4.91667 4.5577C4.91667 3.43478 5.31649 2.47351 6.11615 1.67387C6.9158 0.874222 7.87707 0.474396 8.99997 0.474396C10.1229 0.474396 11.0841 0.874222 11.8838 1.67387C12.6834 2.47351 13.0833 3.43478 13.0833 4.5577C13.0833 5.6806 12.6834 6.64187 11.8838 7.44153C11.0841 8.24116 10.1229 8.64097 8.99997 8.64097ZM15.9775 17.5256H2.0224C1.53032 17.5256 1.1119 17.3532 0.767154 17.0084C0.422384 16.6637 0.25 16.2453 0.25 15.7532V14.932C0.25 14.3607 0.405186 13.8316 0.715558 13.3447C1.02591 12.8579 1.44059 12.4836 1.9596 12.2218C3.11281 11.6564 4.27612 11.2324 5.44951 10.9497C6.62291 10.667 7.80639 10.5257 8.99997 10.5257C10.1935 10.5257 11.377 10.667 12.5504 10.9497C13.7238 11.2324 14.8871 11.6564 16.0403 12.2218C16.5593 12.4836 16.974 12.8579 17.2844 13.3447C17.5948 13.8316 17.7499 14.3607 17.7499 14.932V15.7532C17.7499 16.2453 17.5776 16.6637 17.2328 17.0084C16.888 17.3532 16.4696 17.5256 15.9775 17.5256ZM1.99997 15.7756H16V14.932C16 14.6957 15.9315 14.4769 15.7947 14.2758C15.6578 14.0746 15.472 13.9104 15.2371 13.7833C14.232 13.2882 13.2071 12.9132 12.1625 12.6581C11.1178 12.4031 10.0636 12.2756 8.99997 12.2756C7.93632 12.2756 6.88216 12.4031 5.83749 12.6581C4.79281 12.9132 3.76792 13.2882 2.7628 13.7833C2.52796 13.9104 2.34212 14.0746 2.20527 14.2758C2.06841 14.4769 1.99997 14.6957 1.99997 14.932V15.7756ZM8.99997 6.89103C9.64164 6.89103 10.1909 6.66256 10.6479 6.20562C11.1048 5.74867 11.3333 5.19937 11.3333 4.5577C11.3333 3.91603 11.1048 3.36673 10.6479 2.90978C10.1909 2.45284 9.64164 2.22437 8.99997 2.22437C8.3583 2.22437 7.809 2.45284 7.35205 2.90978C6.89511 3.36673 6.66664 3.91603 6.66664 4.5577C6.66664 5.19937 6.89511 5.74867 7.35205 6.20562C7.809 6.66256 8.3583 6.89103 8.99997 6.89103Z" fill="#8F8F93"/>
</svg>
