<svg width="20" height="22" viewBox="0 0 20 22" fill="none" xmlns="http://www.w3.org/2000/svg">
<path d="M2.79486 21C2.30127 21 1.87873 20.8242 1.52725 20.4727C1.17575 20.1213 1 19.6987 1 19.2051V5.01708C1 4.52349 1.17575 4.10095 1.52725 3.74947C1.87873 3.39797 2.30127 3.22222 2.79486 3.22222H8.01708C7.91595 2.65526 8.05164 2.14315 8.42414 1.68589C8.79666 1.22863 9.28847 1 9.89958 1C10.5107 1 11.0025 1.22863 11.375 1.68589C11.7475 2.14315 11.8761 2.65526 11.7607 3.22222H16.9829C17.4765 3.22222 17.899 3.39797 18.2505 3.74947C18.602 4.10095 18.7778 4.52349 18.7778 5.01708V19.2051C18.7778 19.6987 18.602 20.1213 18.2505 20.4727C17.899 20.8242 17.4765 21 16.9829 21H2.79486ZM2.79486 19.8889H16.9829C17.1538 19.8889 17.3105 19.8177 17.453 19.6752C17.5954 19.5328 17.6667 19.3761 17.6667 19.2051V5.01708C17.6667 4.84616 17.5954 4.68946 17.453 4.547C17.3105 4.40456 17.1538 4.33333 16.9829 4.33333H2.79486C2.62394 4.33333 2.46724 4.40456 2.32478 4.547C2.18233 4.68946 2.11111 4.84616 2.11111 5.01708V19.2051C2.11111 19.3761 2.18233 19.5328 2.32478 19.6752C2.46724 19.8177 2.62394 19.8889 2.79486 19.8889ZM5.44444 16.8547H11C11.1574 16.8547 11.2894 16.8014 11.3958 16.6948C11.5023 16.5881 11.5556 16.456 11.5556 16.2984C11.5556 16.1408 11.5023 16.0089 11.3958 15.9028C11.2894 15.7966 11.1574 15.7436 11 15.7436H5.44444C5.28704 15.7436 5.15509 15.7969 5.04861 15.9035C4.94213 16.0102 4.88889 16.1423 4.88889 16.2999C4.88889 16.4575 4.94213 16.5894 5.04861 16.6955C5.15509 16.8016 5.28704 16.8547 5.44444 16.8547ZM5.44444 12.6667H14.3333C14.4907 12.6667 14.6227 12.6134 14.7292 12.5067C14.8356 12.4001 14.8889 12.268 14.8889 12.1104C14.8889 11.9527 14.8356 11.8209 14.7292 11.7148C14.6227 11.6086 14.4907 11.5556 14.3333 11.5556H5.44444C5.28704 11.5556 5.15509 11.6089 5.04861 11.7155C4.94213 11.8221 4.88889 11.9542 4.88889 12.1119C4.88889 12.2695 4.94213 12.4014 5.04861 12.5075C5.15509 12.6136 5.28704 12.6667 5.44444 12.6667ZM5.44444 8.47864H14.3333C14.4907 8.47864 14.6227 8.42532 14.7292 8.31869C14.8356 8.21206 14.8889 8.07994 14.8889 7.92233C14.8889 7.7647 14.8356 7.63282 14.7292 7.52669C14.6227 7.42058 14.4907 7.36753 14.3333 7.36753H5.44444C5.28704 7.36753 5.15509 7.42083 5.04861 7.52744C4.94213 7.63407 4.88889 7.7662 4.88889 7.92383C4.88889 8.08144 4.94213 8.21332 5.04861 8.31944C5.15509 8.42557 5.28704 8.47864 5.44444 8.47864ZM9.88889 3.71367C10.1296 3.71367 10.3287 3.63496 10.4861 3.47756C10.6435 3.32015 10.7222 3.12107 10.7222 2.88033C10.7222 2.63959 10.6435 2.44052 10.4861 2.28311C10.3287 2.1257 10.1296 2.047 9.88889 2.047C9.64815 2.047 9.44907 2.1257 9.29167 2.28311C9.13426 2.44052 9.05556 2.63959 9.05556 2.88033C9.05556 3.12107 9.13426 3.32015 9.29167 3.47756C9.44907 3.63496 9.64815 3.71367 9.88889 3.71367Z" fill="#8F8F93"/>
<path d="M2.11111 19.8889V4.33333M2.79486 21C2.30127 21 1.87873 20.8242 1.52725 20.4727C1.17575 20.1213 1 19.6987 1 19.2051V5.01708C1 4.52349 1.17575 4.10095 1.52725 3.74947C1.87873 3.39797 2.30127 3.22222 2.79486 3.22222H8.01708C7.91595 2.65526 8.05164 2.14315 8.42414 1.68589C8.79666 1.22863 9.28847 1 9.89958 1C10.5107 1 11.0025 1.22863 11.375 1.68589C11.7475 2.14315 11.8761 2.65526 11.7607 3.22222H16.9829C17.4765 3.22222 17.899 3.39797 18.2505 3.74947C18.602 4.10095 18.7778 4.52349 18.7778 5.01708V19.2051C18.7778 19.6987 18.602 20.1213 18.2505 20.4727C17.899 20.8242 17.4765 21 16.9829 21H2.79486ZM2.79486 19.8889H16.9829C17.1538 19.8889 17.3105 19.8177 17.453 19.6752C17.5954 19.5328 17.6667 19.3761 17.6667 19.2051V5.01708C17.6667 4.84616 17.5954 4.68946 17.453 4.547C17.3105 4.40456 17.1538 4.33333 16.9829 4.33333H2.79486C2.62394 4.33333 2.46724 4.40456 2.32478 4.547C2.18233 4.68946 2.11111 4.84616 2.11111 5.01708V19.2051C2.11111 19.3761 2.18233 19.5328 2.32478 19.6752C2.46724 19.8177 2.62394 19.8889 2.79486 19.8889ZM5.44444 16.8547H11C11.1574 16.8547 11.2894 16.8014 11.3958 16.6948C11.5023 16.5881 11.5556 16.456 11.5556 16.2984C11.5556 16.1408 11.5023 16.0089 11.3958 15.9028C11.2894 15.7966 11.1574 15.7436 11 15.7436H5.44444C5.28704 15.7436 5.15509 15.7969 5.04861 15.9035C4.94213 16.0102 4.88889 16.1423 4.88889 16.2999C4.88889 16.4575 4.94213 16.5894 5.04861 16.6955C5.15509 16.8016 5.28704 16.8547 5.44444 16.8547ZM5.44444 12.6667H14.3333C14.4907 12.6667 14.6227 12.6134 14.7292 12.5067C14.8356 12.4001 14.8889 12.268 14.8889 12.1104C14.8889 11.9527 14.8356 11.8209 14.7292 11.7148C14.6227 11.6086 14.4907 11.5556 14.3333 11.5556H5.44444C5.28704 11.5556 5.15509 11.6089 5.04861 11.7155C4.94213 11.8221 4.88889 11.9542 4.88889 12.1119C4.88889 12.2695 4.94213 12.4014 5.04861 12.5075C5.15509 12.6136 5.28704 12.6667 5.44444 12.6667ZM5.44444 8.47864H14.3333C14.4907 8.47864 14.6227 8.42532 14.7292 8.31869C14.8356 8.21206 14.8889 8.07994 14.8889 7.92233C14.8889 7.7647 14.8356 7.63282 14.7292 7.52669C14.6227 7.42058 14.4907 7.36753 14.3333 7.36753H5.44444C5.28704 7.36753 5.15509 7.42083 5.04861 7.52744C4.94213 7.63407 4.88889 7.7662 4.88889 7.92383C4.88889 8.08144 4.94213 8.21331 5.04861 8.31944C5.15509 8.42557 5.28704 8.47864 5.44444 8.47864ZM9.88889 3.71367C10.1296 3.71367 10.3287 3.63496 10.4861 3.47756C10.6435 3.32015 10.7222 3.12107 10.7222 2.88033C10.7222 2.63959 10.6435 2.44052 10.4861 2.28311C10.3287 2.1257 10.1296 2.047 9.88889 2.047C9.64815 2.047 9.44907 2.1257 9.29167 2.28311C9.13426 2.44052 9.05556 2.63959 9.05556 2.88033C9.05556 3.12107 9.13426 3.32015 9.29167 3.47756C9.44907 3.63496 9.64815 3.71367 9.88889 3.71367Z" stroke="#8F8F93" stroke-width="0.5"/>
</svg>
