<svg width="21" height="21" viewBox="0 0 21 21" fill="none" xmlns="http://www.w3.org/2000/svg">
<path d="M8.10528 15.218C6.11298 15.218 4.42582 14.527 3.04378 13.145C1.66173 11.7629 0.970703 10.0758 0.970703 8.08346C0.970703 6.09116 1.66173 4.40399 3.04378 3.02193C4.42582 1.6399 6.11298 0.948883 8.10528 0.948883C10.0976 0.948883 11.7847 1.6399 13.1668 3.02193C14.5489 4.40399 15.2399 6.09116 15.2399 8.08346C15.2399 8.91657 15.1 9.7123 14.8203 10.4706C14.5406 11.229 14.1674 11.8886 13.7008 12.4495L20.4136 19.1623C20.5751 19.3238 20.6578 19.5269 20.6615 19.7714C20.6653 20.016 20.5826 20.2228 20.4136 20.3918C20.2446 20.5608 20.0397 20.6453 19.7989 20.6453C19.5581 20.6453 19.3532 20.5608 19.1842 20.3918L12.4713 13.6789C11.888 14.1606 11.2171 14.5375 10.4588 14.8097C9.70046 15.0819 8.91596 15.218 8.10528 15.218ZM8.10528 13.4681C9.60849 13.4681 10.8817 12.9465 11.925 11.9032C12.9683 10.8599 13.4899 9.58667 13.4899 8.08346C13.4899 6.58025 12.9683 5.30701 11.925 4.26373C10.8817 3.22046 9.60849 2.69882 8.10528 2.69882C6.60207 2.69882 5.32883 3.22046 4.28555 4.26373C3.2423 5.30701 2.72067 6.58025 2.72067 8.08346C2.72067 9.58667 3.2423 10.8599 4.28555 11.9032C5.32883 12.9465 6.60207 13.4681 8.10528 13.4681Z" fill="#8F8F93"/>
</svg>
