<svg width="17" height="17" viewBox="0 0 17 17" fill="none" xmlns="http://www.w3.org/2000/svg">
<path d="M9.12762 16.1486L0.792 7.813C0.559315 7.58031 0.478033 7.30729 0.548154 6.99392C0.618252 6.68055 0.802777 6.45974 1.10173 6.33148L15.1312 0.623666C15.5119 0.478532 15.8414 0.545142 16.1197 0.823494C16.3981 1.10185 16.4638 1.43049 16.317 1.80941L10.6091 15.8389C10.4809 16.1378 10.2601 16.3224 9.9467 16.3925C9.63333 16.4626 9.36031 16.3813 9.12762 16.1486ZM9.55599 14.4557L14.3997 2.54095L2.48492 7.38463L5.09579 9.9955L9.85511 7.08551L6.94512 11.8448L9.55599 14.4557ZM6.02045 10.9202L2.48492 7.38463L9.55599 14.4557L6.02045 10.9202Z" fill="white"/>
</svg>
