<svg width="22" height="24" viewBox="0 0 22 24" fill="none" xmlns="http://www.w3.org/2000/svg">
<path d="M12.5323 23.1144H8.99869C8.73693 23.1144 8.51033 23.0265 8.31888 22.8507C8.12743 22.675 8.01226 22.4562 7.97337 22.1945L7.6346 19.5605C7.32199 19.4558 7.00152 19.3092 6.6732 19.1208C6.34489 18.9323 6.05134 18.7304 5.79258 18.515L3.35605 19.5426C3.10627 19.6398 2.85835 19.6495 2.6123 19.5717C2.36625 19.4939 2.17292 19.3399 2.03232 19.1095L0.277889 16.0538C0.137286 15.8235 0.0942847 15.5774 0.148885 15.3157C0.203465 15.0539 0.336203 14.843 0.547097 14.683L2.65608 13.0878C2.62915 12.9143 2.61007 12.74 2.59886 12.565C2.58764 12.39 2.58203 12.2158 2.58203 12.0423C2.58203 11.8763 2.58764 11.7076 2.59886 11.5363C2.61007 11.3651 2.62915 11.1777 2.65608 10.9743L0.547097 9.37911C0.336203 9.21908 0.203465 9.00819 0.148885 8.74642C0.0942847 8.48468 0.137286 8.23864 0.277889 8.00831L2.03232 4.97503C2.16097 4.73271 2.34943 4.57566 2.59772 4.50387C2.846 4.43208 3.09504 4.4448 3.34482 4.54202L5.78135 5.55836C6.06255 5.33549 6.36282 5.13169 6.68216 4.94697C7.00151 4.76223 7.31525 4.61377 7.62337 4.5016L7.97337 1.86764C8.01226 1.60588 8.12743 1.38713 8.31888 1.21139C8.51033 1.03563 8.73693 0.947754 8.99869 0.947754H12.5323C12.794 0.947754 13.0225 1.03563 13.2177 1.21139C13.4129 1.38713 13.5299 1.60588 13.5688 1.86764L13.9076 4.51283C14.2576 4.63995 14.5743 4.7884 14.8578 4.95817C15.1412 5.12794 15.4273 5.328 15.716 5.55836L18.1974 4.54202C18.4471 4.4448 18.6932 4.4332 18.9355 4.50722C19.1778 4.58127 19.3693 4.73346 19.5099 4.9638L21.2643 8.00831C21.4049 8.23864 21.4479 8.48468 21.3933 8.74642C21.3387 9.00819 21.206 9.21908 20.9951 9.37911L18.8412 11.0079C18.8831 11.1964 18.9059 11.3726 18.9097 11.5363C18.9134 11.7001 18.9153 11.865 18.9153 12.0311C18.9153 12.1896 18.9115 12.3508 18.9041 12.5146C18.8966 12.6783 18.8697 12.8657 18.8233 13.0766L20.9547 14.683C21.1731 14.8356 21.3077 15.0446 21.3585 15.3101C21.4094 15.5756 21.3645 15.8235 21.2239 16.0538L19.4695 19.0916C19.3289 19.3219 19.1326 19.4771 18.8805 19.5571C18.6285 19.6372 18.3776 19.6285 18.1278 19.5313L15.716 18.5038C15.4273 18.7341 15.1326 18.9379 14.832 19.1151C14.5313 19.2924 14.2232 19.4371 13.9076 19.5493L13.5688 22.1945C13.5299 22.4562 13.4129 22.675 13.2177 22.8507C13.0225 23.0265 12.794 23.1144 12.5323 23.1144ZM10.7845 15.531C11.7553 15.531 12.5813 15.1904 13.2626 14.5091C13.9439 13.8278 14.2845 13.0018 14.2845 12.0311C14.2845 11.0604 13.9439 10.2343 13.2626 9.55303C12.5813 8.87173 11.7553 8.53109 10.7845 8.53109C9.80187 8.53109 8.97288 8.87173 8.29755 9.55303C7.62225 10.2343 7.2846 11.0604 7.2846 12.0311C7.2846 13.0018 7.62225 13.8278 8.29755 14.5091C8.97288 15.1904 9.80187 15.531 10.7845 15.531ZM10.7845 13.7811C10.2984 13.7811 9.88523 13.6109 9.54495 13.2706C9.20468 12.9304 9.03454 12.5172 9.03454 12.0311C9.03454 11.5449 9.20468 11.1318 9.54495 10.7915C9.88523 10.4512 10.2984 10.2811 10.7845 10.2811C11.2706 10.2811 11.6838 10.4512 12.0241 10.7915C12.3644 11.1318 12.5345 11.5449 12.5345 12.0311C12.5345 12.5172 12.3644 12.9304 12.0241 13.2706C11.6838 13.6109 11.2706 13.7811 10.7845 13.7811ZM9.60443 21.3644H11.8974L12.3169 18.2391C12.9122 18.0835 13.4563 17.8625 13.9491 17.5761C14.442 17.2897 14.9172 16.9213 15.3749 16.4711L18.2737 17.6894L19.4224 15.7061L16.8916 13.799C16.9888 13.4969 17.055 13.2007 17.0902 12.9105C17.1253 12.6204 17.1429 12.3272 17.1429 12.0311C17.1429 11.7274 17.1253 11.4343 17.0902 11.1516C17.055 10.8689 16.9888 10.5802 16.8916 10.2856L19.4448 8.35606L18.2961 6.37273L15.3637 7.60895C14.9733 7.19164 14.5056 6.82294 13.9604 6.50287C13.4151 6.18277 12.8636 5.95617 12.3057 5.82305L11.9378 2.69773H9.62236L9.23649 5.81182C8.64118 5.95242 8.09149 6.16781 7.58743 6.45798C7.08338 6.74815 6.60251 7.12209 6.14482 7.57979L3.24609 6.37273L2.09736 8.35606L4.61693 10.234C4.5197 10.5106 4.45165 10.7986 4.41276 11.0977C4.37387 11.3969 4.35443 11.7117 4.35443 12.0423C4.35443 12.3459 4.37387 12.6436 4.41276 12.9352C4.45165 13.2269 4.51596 13.5148 4.6057 13.799L2.09736 15.7061L3.24609 17.6894L6.13359 16.4644C6.57632 16.9191 7.04972 17.2915 7.55378 17.5817C8.05783 17.8719 8.615 18.0947 9.22526 18.2503L9.60443 21.3644Z" fill="#8F8F93"/>
</svg>
