<svg width="17" height="18" viewBox="0 0 17 18" fill="none" xmlns="http://www.w3.org/2000/svg">
<path d="M13.9584 5.27335C13.882 5.27335 13.8062 5.25337 13.731 5.2134C13.6558 5.17345 13.6029 5.11058 13.5723 5.02478L12.9888 3.72914L11.6932 3.14566C11.6074 3.1151 11.5445 3.06222 11.5046 2.987C11.4646 2.91179 11.4446 2.83599 11.4446 2.7596C11.4446 2.68321 11.4646 2.60741 11.5046 2.5322C11.5445 2.45699 11.6074 2.4041 11.6932 2.37355L12.9888 1.79007L13.5723 0.494404C13.6029 0.408619 13.6558 0.345751 13.731 0.3058C13.8062 0.265833 13.882 0.24585 13.9584 0.24585C14.0348 0.24585 14.1106 0.265833 14.1858 0.3058C14.261 0.345751 14.3139 0.408619 14.3444 0.494404L14.9279 1.79007L16.2236 2.37355C16.3093 2.4041 16.3722 2.45699 16.4122 2.5322C16.4521 2.60741 16.4721 2.68321 16.4721 2.7596C16.4721 2.83599 16.4521 2.91179 16.4122 2.987C16.3722 3.06222 16.3093 3.1151 16.2236 3.14566L14.9279 3.72914L14.3444 5.02478C14.3139 5.11058 14.261 5.17345 14.1858 5.2134C14.1106 5.25337 14.0348 5.27335 13.9584 5.27335ZM13.9584 17.7541C13.882 17.7541 13.8062 17.7341 13.731 17.6941C13.6558 17.6542 13.6029 17.5913 13.5723 17.5055L12.9888 16.2099L11.6932 15.6264C11.6074 15.5958 11.5445 15.543 11.5046 15.4677C11.4646 15.3925 11.4446 15.3167 11.4446 15.2403C11.4446 15.1639 11.4646 15.0881 11.5046 15.0129C11.5445 14.9377 11.6074 14.8848 11.6932 14.8543L12.9888 14.2708L13.5723 12.9752C13.6029 12.8894 13.6558 12.8265 13.731 12.7865C13.8062 12.7466 13.882 12.7266 13.9584 12.7266C14.0348 12.7266 14.1106 12.7466 14.1858 12.7865C14.261 12.8265 14.3139 12.8894 14.3444 12.9752L14.9279 14.2708L16.2236 14.8543C16.3093 14.8848 16.3722 14.9377 16.4122 15.0129C16.4521 15.0881 16.4721 15.1639 16.4721 15.2403C16.4721 15.3167 16.4521 15.3925 16.4122 15.4677C16.3722 15.543 16.3093 15.5958 16.2236 15.6264L14.9279 16.2099L14.3444 17.5055C14.3139 17.5913 14.261 17.6542 14.1858 17.6941C14.1106 17.7341 14.0348 17.7541 13.9584 17.7541ZM5.14429 14.031C4.99387 14.031 4.84961 13.9896 4.71153 13.9067C4.57344 13.8239 4.46914 13.7072 4.39863 13.5568L3.20522 10.939L0.587473 9.74563C0.437048 9.67513 0.32041 9.57082 0.237558 9.43273C0.154707 9.29465 0.113281 9.15039 0.113281 8.99997C0.113281 8.84954 0.154707 8.70529 0.237558 8.56721C0.32041 8.42912 0.437048 8.32481 0.587473 8.25431L3.20522 7.0609L4.39863 4.44315C4.46914 4.29273 4.57344 4.17609 4.71153 4.09324C4.84961 4.01039 4.99387 3.96896 5.14429 3.96896C5.29472 3.96896 5.43898 4.01039 5.57707 4.09324C5.71515 4.17609 5.81945 4.29273 5.88995 4.44315L7.08338 7.0609L9.70111 8.25431C9.85153 8.32481 9.96818 8.42912 10.051 8.56721C10.1339 8.70529 10.1753 8.84954 10.1753 8.99997C10.1753 9.15039 10.1339 9.29465 10.051 9.43273C9.96818 9.57082 9.85153 9.67513 9.70111 9.74563L7.08338 10.939L5.88995 13.5568C5.81945 13.7072 5.71515 13.8239 5.57707 13.9067C5.43898 13.9896 5.29472 14.031 5.14429 14.031ZM5.14429 11.8875L6.06096 9.91664L8.03179 8.99997L6.06096 8.0833L5.14429 6.11247L4.22762 8.0833L2.25679 8.99997L4.22762 9.91664L5.14429 11.8875Z" fill="white"/>
</svg>
