<svg width="14" height="14" viewBox="0 0 14 14" fill="none" xmlns="http://www.w3.org/2000/svg">
<path d="M1.74998 6.24998C1.44326 6.24998 1.17908 6.13917 0.957456 5.91754C0.735819 5.69591 0.625 5.43173 0.625 5.125V1.74998C0.625 1.44326 0.735819 1.17908 0.957456 0.957456C1.17908 0.735819 1.44326 0.625 1.74998 0.625H5.125C5.43173 0.625 5.69591 0.735819 5.91754 0.957456C6.13917 1.17908 6.24998 1.44326 6.24998 1.74998V5.125C6.24998 5.43173 6.13917 5.69591 5.91754 5.91754C5.69591 6.13917 5.43173 6.24998 5.125 6.24998H1.74998ZM1.74998 13.375C1.44326 13.375 1.17908 13.2641 0.957456 13.0425C0.735819 12.8209 0.625 12.5567 0.625 12.25V8.87496C0.625 8.56824 0.735819 8.30406 0.957456 8.08242C1.17908 7.86079 1.44326 7.74998 1.74998 7.74998H5.125C5.43173 7.74998 5.69591 7.86079 5.91754 8.08242C6.13917 8.30406 6.24998 8.56824 6.24998 8.87496V12.25C6.24998 12.5567 6.13917 12.8209 5.91754 13.0425C5.69591 13.2641 5.43173 13.375 5.125 13.375H1.74998ZM8.87496 6.24998C8.56824 6.24998 8.30406 6.13917 8.08242 5.91754C7.86079 5.69591 7.74998 5.43173 7.74998 5.125V1.74998C7.74998 1.44326 7.86079 1.17908 8.08242 0.957456C8.30406 0.735819 8.56824 0.625 8.87496 0.625H12.25C12.5567 0.625 12.8209 0.735819 13.0425 0.957456C13.2641 1.17908 13.375 1.44326 13.375 1.74998V5.125C13.375 5.43173 13.2641 5.69591 13.0425 5.91754C12.8209 6.13917 12.5567 6.24998 12.25 6.24998H8.87496ZM8.87496 13.375C8.56824 13.375 8.30406 13.2641 8.08242 13.0425C7.86079 12.8209 7.74998 12.5567 7.74998 12.25V8.87496C7.74998 8.56824 7.86079 8.30406 8.08242 8.08242C8.30406 7.86079 8.56824 7.74998 8.87496 7.74998H12.25C12.5567 7.74998 12.8209 7.86079 13.0425 8.08242C13.2641 8.30406 13.375 8.56824 13.375 8.87496V12.25C13.375 12.5567 13.2641 12.8209 13.0425 13.0425C12.8209 13.2641 12.5567 13.375 12.25 13.375H8.87496ZM1.74998 5.125H5.125V1.74998H1.74998V5.125ZM8.87496 5.125H12.25V1.74998H8.87496V5.125ZM8.87496 12.25H12.25V8.87496H8.87496V12.25ZM1.74998 12.25H5.125V8.87496H1.74998V12.25Z" fill="#8F8F93"/>
</svg>
