<svg width="24" height="24" viewBox="0 0 24 24" fill="none" xmlns="http://www.w3.org/2000/svg">
<path d="M4 15.9904V7.74011C4 7.28634 4.15818 6.90209 4.47453 6.58736C4.79086 6.27261 5.17114 6.11523 5.61538 6.11523H18.3846C18.8289 6.11523 19.2091 6.27261 19.5255 6.58736C19.8418 6.90209 20 7.28634 20 7.74011V15.9904C20 16.4441 19.8418 16.8284 19.5255 17.1431C19.2091 17.4579 18.8289 17.6153 18.3846 17.6153H5.61538C5.17114 17.6153 4.79086 17.4579 4.47453 17.1431C4.15818 16.8284 4 16.4441 4 15.9904ZM5 9.61523H7.5V7.11523H5.61538C5.43589 7.11523 5.28846 7.17293 5.17308 7.28831C5.05769 7.40369 5 7.55113 5 7.73063V9.61523ZM8.5 9.61523H19V7.73063C19 7.55113 18.9423 7.40369 18.8269 7.28831C18.7115 7.17293 18.5641 7.11523 18.3846 7.11523H8.5V9.61523ZM8.5 13.1152H19V10.6152H8.5V13.1152ZM8.5 16.6152H18.3846C18.5641 16.6152 18.7115 16.5575 18.8269 16.4422C18.9423 16.3268 19 16.1793 19 15.9999V14.1153H8.5V16.6152ZM5.61538 16.6152H7.5V14.1153H5V15.9999C5 16.1793 5.05769 16.3268 5.17308 16.4422C5.28846 16.5575 5.43589 16.6152 5.61538 16.6152ZM5 13.1152H7.5V10.6152H5V13.1152Z" fill="#05C3FF"/>
</svg>
