<svg width="16" height="16" viewBox="0 0 16 16" fill="none" xmlns="http://www.w3.org/2000/svg">
<path d="M8.50049 1.5006C8.50057 1.41891 8.48063 1.33845 8.44242 1.26625C8.40422 1.19405 8.3489 1.13231 8.28131 1.08643C8.21373 1.04055 8.13593 1.01192 8.05473 1.00306C7.97352 0.994203 7.89138 1.00537 7.81549 1.0356L1.94849 3.3596C1.66883 3.47028 1.4289 3.66248 1.25985 3.91124C1.0908 4.16 1.00044 4.45383 1.00049 4.7546V10.4966C1.00047 10.5782 1.02041 10.6585 1.05857 10.7306C1.09672 10.8027 1.15193 10.8643 1.21938 10.9102C1.28684 10.956 1.36448 10.9847 1.44555 10.9937C1.52662 11.0026 1.60865 10.9916 1.68449 10.9616L2.00049 10.8366V11.9116C1.77418 11.9916 1.53197 12.0161 1.29422 11.9831C1.05646 11.9501 0.830095 11.8605 0.634142 11.7219C0.438189 11.5833 0.278368 11.3996 0.168107 11.1864C0.057845 10.9732 0.000362626 10.7366 0.000488487 10.4966V4.7546C0.000401163 4.25332 0.151008 3.7636 0.432759 3.349C0.714509 2.93439 1.11439 2.61407 1.58049 2.4296L7.44749 0.105598C7.66774 0.0182747 7.90554 -0.0156339 8.14141 0.00664913C8.37729 0.0289322 8.60454 0.106773 8.80453 0.233796C9.00453 0.36082 9.1716 0.533413 9.29204 0.737439C9.41249 0.941465 9.48289 1.17112 9.49749 1.4076L8.49949 1.8016V1.5006H8.50049ZM11.5005 3.5006C11.5004 3.41899 11.4804 3.33865 11.4421 3.26658C11.4038 3.19451 11.3485 3.13291 11.2809 3.08714C11.2133 3.04138 11.1356 3.01285 11.0545 3.00404C10.9734 2.99523 10.8913 3.0064 10.8155 3.0366L4.63249 5.4856C4.44605 5.55939 4.2861 5.68752 4.1734 5.85336C4.0607 6.0192 4.00045 6.21509 4.00049 6.4156V12.4976C4.00047 12.5792 4.02041 12.6595 4.05857 12.7316C4.09672 12.8037 4.15193 12.8653 4.21938 12.9112C4.28684 12.957 4.36448 12.9857 4.44555 12.9947C4.52662 13.0036 4.60865 12.9926 4.68449 12.9626L6.00049 12.4396V13.5156L5.05349 13.8906C4.82608 13.9808 4.58006 14.014 4.33687 13.9873C4.09369 13.9606 3.86072 13.8749 3.65828 13.7375C3.45584 13.6001 3.29007 13.4153 3.17541 13.1992C3.06076 12.9831 3.00071 12.7422 3.00049 12.4976V6.4146C3.00042 6.01358 3.12091 5.6218 3.34631 5.29012C3.57171 4.95844 3.89161 4.70217 4.26449 4.5546L10.4475 2.1066C10.6749 2.01661 10.9208 1.98358 11.1638 2.01036C11.4069 2.03715 11.6397 2.12295 11.842 2.26028C12.0443 2.39762 12.21 2.58233 12.3246 2.79833C12.4392 3.01434 12.4992 3.25508 12.4995 3.4996V3.6026L11.5005 3.9996V3.4996V3.5006ZM14.3165 5.0356C14.3923 5.00561 14.4742 4.9946 14.5552 5.00351C14.6362 5.01242 14.7138 5.04099 14.7812 5.08673C14.8486 5.13247 14.9038 5.194 14.9421 5.26595C14.9803 5.33791 15.0003 5.41812 15.0005 5.4996V12.1236C15.0003 12.2237 14.9701 12.3214 14.9138 12.4041C14.8574 12.4869 14.7776 12.5508 14.6845 12.5876L8.68449 14.9646C8.60865 14.9946 8.52662 15.0056 8.44555 14.9967C8.36448 14.9877 8.28684 14.959 8.21939 14.9132C8.15193 14.8673 8.09672 14.8057 8.05857 14.7336C8.02042 14.6615 8.00048 14.5812 8.00049 14.4996V7.8766C8.00047 7.77634 8.03059 7.6784 8.08694 7.59548C8.14329 7.51256 8.22327 7.44849 8.31649 7.4116L14.3165 5.0356ZM16.0005 5.4996C16.0004 5.25499 15.9404 5.01413 15.8259 4.798C15.7114 4.58186 15.5457 4.39702 15.3434 4.25956C15.1411 4.12211 14.9082 4.03623 14.6651 4.00939C14.4219 3.98256 14.1759 4.01558 13.9485 4.1056L7.94849 6.4816C7.66883 6.59228 7.4289 6.78448 7.25985 7.03324C7.0908 7.282 7.00044 7.57583 7.00049 7.8766V14.4996C7.00045 14.7443 7.06026 14.9853 7.17473 15.2015C7.28919 15.4178 7.45482 15.6028 7.65717 15.7403C7.85953 15.8779 8.09247 15.9639 8.33567 15.9908C8.57888 16.0177 8.82497 15.9846 9.05249 15.8946L15.0525 13.5176C15.332 13.407 15.5718 13.2149 15.7408 12.9664C15.9099 12.7178 16.0003 12.4242 16.0005 12.1236V5.4996Z" fill="black"/>
</svg>
