<svg width="25" height="18" viewBox="0 0 25 18" fill="none" xmlns="http://www.w3.org/2000/svg">
<path d="M1 15.1V3.32003C1 2.67213 1.22585 2.12349 1.67754 1.67411C2.12921 1.2247 2.67218 1 3.30647 1H21.5387C22.173 1 22.716 1.2247 23.1676 1.67411C23.6193 2.12349 23.8452 2.67213 23.8452 3.32003V15.1C23.8452 15.7478 23.6193 16.2965 23.1676 16.7459C22.716 17.1953 22.173 17.42 21.5387 17.42H3.30647C2.67218 17.42 2.12921 17.1953 1.67754 16.7459C1.22585 16.2965 1 15.7478 1 15.1ZM2.42782 5.99738H5.99738V2.42782H3.30647C3.0502 2.42782 2.83969 2.5102 2.67494 2.67494C2.5102 2.83969 2.42782 3.05021 2.42782 3.3065V5.99738ZM7.4252 5.99738H22.4173V3.3065C22.4173 3.05021 22.335 2.83969 22.1702 2.67494C22.0055 2.5102 21.795 2.42782 21.5387 2.42782H7.4252V5.99738ZM7.4252 10.9948H22.4173V7.4252H7.4252V10.9948ZM7.4252 15.9921H21.5387C21.795 15.9921 22.0055 15.9098 22.1702 15.745C22.335 15.5803 22.4173 15.3698 22.4173 15.1135V12.4226H7.4252V15.9921ZM3.30647 15.9921H5.99738V12.4226H2.42782V15.1135C2.42782 15.3698 2.5102 15.5803 2.67494 15.745C2.83969 15.9098 3.0502 15.9921 3.30647 15.9921ZM2.42782 10.9948H5.99738V7.4252H2.42782V10.9948Z" fill="#8F8F93" stroke="#8F8F93" stroke-width="0.5"/>
</svg>
